<svg width="84" height="75" viewBox="0 0 84 75" fill="none" xmlns="http://www.w3.org/2000/svg">
    <g clip-path="url(#clip0_434_514)">
        <path
            d="M45.148 23.2178L48.5169 2.90039C48.794 1.23047 50.2378 0 51.9296 0C53.0234 0 54.0443 0.512695 54.7005 1.3916L57.1653 4.6875H64.7636C66.6158 4.6875 68.395 5.43457 69.7076 6.75293L72.3327 9.375H80.4998C82.4395 9.375 84 10.9424 84 12.8906V16.4062C84 22.8809 78.7789 28.125 72.3327 28.125H67.6658H65.3324H62.2259L61.4822 32.5928L45.148 23.2178ZM60.6654 37.5146V70.3125C60.6654 72.9053 58.5799 75 55.9985 75H51.3316C48.7502 75 46.6647 72.9053 46.6647 70.3125V53.4375C43.1645 55.2393 39.1976 56.25 34.9974 56.25C30.7972 56.25 26.8303 55.2393 23.3301 53.4375V70.3125C23.3301 72.9053 21.2446 75 18.6632 75H13.9963C11.4149 75 9.3294 72.9053 9.3294 70.3125V36.5918C5.12918 34.9951 1.83317 31.4209 0.695613 26.8506L0.141417 24.5801C-0.485699 22.0752 1.03105 19.5264 3.53951 18.8965C6.04798 18.2666 8.57103 19.79 9.19814 22.3096L9.76692 24.5801C10.2774 26.6602 12.1441 28.125 14.288 28.125H18.6632H20.9967H44.3021L60.6654 37.5146ZM67.6658 11.7188C67.6658 11.0971 67.42 10.501 66.9824 10.0615C66.5447 9.62193 65.9512 9.375 65.3324 9.375C64.7135 9.375 64.12 9.62193 63.6823 10.0615C63.2447 10.501 62.9989 11.0971 62.9989 11.7188C62.9989 12.3404 63.2447 12.9365 63.6823 13.376C64.12 13.8156 64.7135 14.0625 65.3324 14.0625C65.9512 14.0625 66.5447 13.8156 66.9824 13.376C67.42 12.9365 67.6658 12.3404 67.6658 11.7188Z"
            fill="black" />
    </g>
    <defs>
        <clipPath id="clip0_434_514">
            <rect width="84" height="75" fill="white" />
        </clipPath>
    </defs>
</svg>