<svg width="58" height="57" viewBox="0 0 58 57" fill="none" xmlns="http://www.w3.org/2000/svg">
<g clip-path="url(#clip0_438_608)">
<path d="M32.625 12.41V39.0531C32.625 40.9961 31.0051 42.566 29 42.566C26.9949 42.566 25.375 40.9961 25.375 39.0531V12.41L17.0602 20.4677C15.6441 21.8399 13.3445 21.8399 11.9285 20.4677C10.5125 19.0955 10.5125 16.867 11.9285 15.4948L26.4285 1.44323C27.8445 0.0710072 30.1441 0.0710072 31.5602 1.44323L46.0602 15.4948C47.4762 16.867 47.4762 19.0955 46.0602 20.4677C44.6441 21.8399 42.3445 21.8399 40.9285 20.4677L32.625 12.41ZM7.25 39.0531H21.75C21.75 42.9282 25.0012 46.0788 29 46.0788C32.9988 46.0788 36.25 42.9282 36.25 39.0531H50.75C54.7488 39.0531 58 42.2037 58 46.0788V49.5917C58 53.4669 54.7488 56.6175 50.75 56.6175H7.25C3.25117 56.6175 0 53.4669 0 49.5917V46.0788C0 42.2037 3.25117 39.0531 7.25 39.0531ZM48.9375 50.47C49.6586 50.47 50.3501 50.1924 50.8599 49.6983C51.3698 49.2042 51.6562 48.534 51.6562 47.8353C51.6562 47.1365 51.3698 46.4664 50.8599 45.9723C50.3501 45.4782 49.6586 45.2006 48.9375 45.2006C48.2164 45.2006 47.5249 45.4782 47.0151 45.9723C46.5052 46.4664 46.2188 47.1365 46.2188 47.8353C46.2188 48.534 46.5052 49.2042 47.0151 49.6983C47.5249 50.1924 48.2164 50.47 48.9375 50.47Z" fill="black"/>
</g>
<defs>
<clipPath id="clip0_438_608">
<rect width="58" height="56.2062" fill="white" transform="translate(0 0.414062)"/>
</clipPath>
</defs>
</svg>
