<?xml version="1.0" encoding="utf-8"?>
<svg viewBox="0 0 512 512" xmlns="http://www.w3.org/2000/svg" xmlns:bx="https://boxy-svg.com">
  <defs>
    <linearGradient gradientUnits="userSpaceOnUse" x1="175.968" y1="201.159" x2="175.968" y2="451.737" id="gradient-0" gradientTransform="matrix(1.139896, 0, 0, 1.008584, -66.021536, 7.9523)">
      <stop offset="0" style="stop-color: rgb(3.5294% 3.5294% 3.5294%)"/>
      <stop offset="1" style="stop-color: rgb(2.1176% 2.1176% 2.1176%)"/>
    </linearGradient>
  </defs>
  <path d="M 121.525 115.05 C 121.525 91.19 141.001 71.791 164.957 71.791 L 425.551 71.791 C 449.506 71.791 468.983 91.19 468.983 115.05 L 468.983 331.348 C 468.983 355.208 449.506 374.607 425.551 374.607 L 164.957 374.607 C 141.001 374.607 121.525 355.208 121.525 331.348 L 121.525 115.05 Z M 341.265 187.037 C 338.211 182.575 333.19 179.939 327.828 179.939 C 322.467 179.939 317.377 182.575 314.391 187.037 L 255.351 273.285 L 237.367 250.912 C 234.245 247.059 229.562 244.829 224.676 244.829 C 219.791 244.829 215.04 247.059 211.986 250.912 L 168.554 304.986 C 164.617 309.853 163.872 316.545 166.586 322.155 C 169.3 327.766 175.001 331.348 181.244 331.348 L 246.392 331.348 L 268.108 331.348 L 409.264 331.348 C 415.303 331.348 420.868 328.036 423.65 322.696 C 426.433 317.356 426.093 310.934 422.701 306 L 341.265 187.037 Z M 197.531 179.939 C 222.607 179.939 238.279 152.903 225.741 131.272 C 219.923 121.234 209.169 115.05 197.531 115.05 C 172.456 115.05 156.783 142.088 169.321 163.717 C 175.14 173.756 185.893 179.939 197.531 179.939 Z" style=""/>
  <path d="M 110.904 210.838 H 158.223 V 311.93 H 252.861 V 362.475 H 158.223 V 463.566 H 110.904 V 362.475 H 16.265 V 311.93 H 110.904 Z" style="paint-order: stroke; fill: url('#gradient-0'); fill-rule: evenodd; stroke: rgb(245, 241, 241); stroke-width: 20px;" bx:shape="cross 16.265 210.838 236.596 252.728 50.545 47.319 0.5 1@e2a3f244"/>
</svg>