<svg width="56" height="56" viewBox="0 0 56 56" fill="none" xmlns="http://www.w3.org/2000/svg">
<g clip-path="url(#clip0_643_558)">
<path d="M28 5.25C34.0337 5.25 39.8202 7.64687 44.0867 11.9133C48.3531 16.1798 50.75 21.9663 50.75 28C50.75 34.0337 48.3531 39.8202 44.0867 44.0867C39.8202 48.3531 34.0337 50.75 28 50.75C21.9663 50.75 16.1798 48.3531 11.9133 44.0867C7.64687 39.8202 5.25 34.0337 5.25 28C5.25 21.9663 7.64687 16.1798 11.9133 11.9133C16.1798 7.64687 21.9663 5.25 28 5.25ZM28 56C35.4261 56 42.548 53.05 47.799 47.799C53.05 42.548 56 35.4261 56 28C56 20.5739 53.05 13.452 47.799 8.20101C42.548 2.94999 35.4261 0 28 0C20.5739 0 13.452 2.94999 8.20101 8.20101C2.94999 13.452 0 20.5739 0 28C0 35.4261 2.94999 42.548 8.20101 47.799C13.452 53.05 20.5739 56 28 56ZM19.1406 19.1406C18.1125 20.1688 18.1125 21.8312 19.1406 22.8484L24.2812 27.9891L19.1406 33.1297C18.1125 34.1578 18.1125 35.8203 19.1406 36.8375C20.1688 37.8547 21.8312 37.8656 22.8484 36.8375L27.9891 31.6969L33.1297 36.8375C34.1578 37.8656 35.8203 37.8656 36.8375 36.8375C37.8547 35.8094 37.8656 34.1469 36.8375 33.1297L31.6969 27.9891L36.8375 22.8484C37.8656 21.8203 37.8656 20.1578 36.8375 19.1406C35.8094 18.1234 34.1469 18.1125 33.1297 19.1406L27.9891 24.2812L22.8484 19.1406C21.8203 18.1125 20.1578 18.1125 19.1406 19.1406Z" fill="black"/>
</g>
<defs>
<clipPath id="clip0_643_558">
<rect width="56" height="56" fill="white"/>
</clipPath>
</defs>
</svg>
