<svg xmlns="http://www.w3.org/2000/svg" xmlns:xlink="http://www.w3.org/1999/xlink" width="1920" zoomAndPan="magnify" viewBox="0 0 1440 809.999993" height="1080" preserveAspectRatio="xMidYMid meet" version="1.0"><path fill="#fdc106" d="M 263.058594 288.15625 C 253.289062 288.15625 243.441406 292.109375 233.515625 300.015625 C 231.949219 301.265625 230.476562 302.628906 229.113281 304.089844 C 219.25 314.671875 206.09375 331.644531 189.636719 355.015625 C 176.707031 373.382812 181.101562 398.761719 199.457031 411.703125 C 206.574219 416.722656 214.742188 419.132812 222.835938 419.132812 C 234.785156 419.132812 246.5625 413.875 254.515625 403.992188 L 254.539062 403.992188 C 309.203125 536.078125 359.417969 642.792969 405.195312 724.140625 C 412.660156 737.40625 426.453125 744.867188 440.65625 744.867188 C 447.410156 744.867188 454.257812 743.179688 460.566406 739.625 C 480.128906 728.601562 487.058594 703.792969 476.039062 684.214844 C 425.972656 595.234375 370.003906 473.871094 308.144531 320.113281 C 306.214844 315.316406 303.386719 310.929688 299.8125 307.191406 C 287.6875 294.5 275.433594 288.15625 263.058594 288.15625 Z M 263.058594 288.15625 " fill-opacity="0.988" fill-rule="nonzero"/><path fill="#fdc106" d="M 507.902344 653.085938 C 501.261719 653.085938 494.53125 654.71875 488.304688 658.152344 C 472.058594 667.121094 450.542969 678.242188 423.757812 691.519531 C 422.976562 691.90625 422.210938 692.320312 421.457031 692.753906 C 405.328125 702.082031 393.167969 710.679688 384.972656 718.539062 C 368.761719 734.085938 368.21875 759.839844 383.753906 776.0625 C 391.738281 784.398438 402.414062 788.59375 413.109375 788.59375 C 423.222656 788.59375 433.351562 784.839844 441.234375 777.28125 C 444.566406 774.085938 451.117188 769.632812 460.886719 763.929688 L 460.859375 763.929688 C 488.246094 750.34375 510.484375 738.832031 527.574219 729.402344 C 547.234375 718.550781 554.378906 693.804688 543.539062 674.128906 C 536.128906 660.683594 522.234375 653.085938 507.902344 653.085938 Z M 507.902344 653.085938 " fill-opacity="0.988" fill-rule="nonzero"/><path fill="#44b6ea" d="M 645.003906 508.4375 C 644.539062 511.464844 643.769531 514.640625 642.691406 517.960938 L 642.664062 517.960938 C 643.464844 515.277344 643.984375 512.53125 644.21875 509.769531 L 644.1875 509.769531 C 644.449219 509.328125 644.710938 508.882812 644.972656 508.4375 Z M 644.234375 26.734375 C 592.851562 26.734375 546.066406 53.269531 503.882812 106.339844 C 489.902344 123.925781 492.816406 149.519531 510.386719 163.507812 C 517.867188 169.460938 526.800781 172.351562 535.667969 172.351562 C 547.632812 172.351562 559.484375 167.09375 567.511719 156.996094 C 593.414062 124.410156 619.148438 108.113281 644.714844 108.113281 C 645.695312 108.113281 646.671875 108.136719 647.648438 108.1875 C 648.308594 108.21875 648.964844 108.234375 649.625 108.234375 C 649.742188 108.234375 649.859375 108.234375 649.976562 108.234375 C 650.199219 108.230469 650.417969 108.230469 650.636719 108.230469 C 672.613281 108.230469 684.972656 117.910156 687.714844 137.269531 C 687.898438 138.566406 688.144531 139.851562 688.449219 141.125 C 693.476562 161.925781 685.324219 207.640625 663.992188 278.265625 L 663.976562 278.265625 C 657.347656 298.339844 647.960938 321.515625 635.8125 347.792969 L 635.792969 347.828125 C 611.171875 401.230469 589.320312 443.605469 570.234375 474.964844 C 569.984375 475.375 569.742188 475.789062 569.503906 476.210938 C 563.988281 486.042969 561.554688 495.851562 562.207031 505.628906 L 562.175781 505.628906 C 559.664062 524.761719 569.265625 538.171875 590.980469 545.867188 C 596.117188 547.683594 601.910156 548.59375 608.351562 548.59375 C 608.828125 548.59375 609.308594 548.589844 609.789062 548.578125 C 614.164062 548.488281 619.65625 547.996094 626.261719 547.09375 C 627.144531 546.972656 628.023438 546.824219 628.898438 546.644531 C 720.136719 528.019531 773.339844 518.628906 788.515625 518.464844 L 788.546875 518.464844 C 790.234375 518.675781 791.914062 518.78125 793.578125 518.78125 C 812.519531 518.78125 829.476562 505.457031 833.378906 486.160156 C 837.835938 464.136719 823.605469 442.671875 801.601562 438.210938 C 798.269531 437.539062 794.601562 437.171875 790.605469 437.109375 C 790.316406 437.105469 790.015625 437.101562 789.710938 437.101562 C 773.851562 437.101562 735.40625 442.957031 674.375 454.660156 C 685.527344 432.941406 697.269531 408.707031 709.601562 381.960938 C 723.261719 352.417969 733.90625 326 741.535156 302.710938 C 741.632812 302.410156 741.730469 302.109375 741.820312 301.808594 C 766.796875 219.117188 775.546875 160.042969 768.066406 124.589844 L 768.035156 124.589844 C 758.371094 59.4375 719.414062 26.859375 651.15625 26.859375 C 650.90625 26.859375 650.660156 26.859375 650.410156 26.863281 C 648.34375 26.777344 646.285156 26.734375 644.234375 26.734375 Z M 644.234375 26.734375 " fill-opacity="0.988" fill-rule="nonzero"/><path fill="#fe5c94" d="M 931.625 219.300781 C 913.292969 219.300781 896.65625 231.796875 892.148438 250.414062 C 886.863281 272.25 900.265625 294.242188 922.085938 299.535156 C 1005.105469 319.660156 1052.210938 331.789062 1063.398438 335.914062 L 1063.367188 335.914062 C 1065.085938 336.738281 1066.867188 337.4375 1068.691406 338.015625 C 1076.210938 340.382812 1086.207031 344.101562 1098.683594 349.171875 L 1098.648438 349.171875 C 1094.84375 352.960938 1090.449219 357.121094 1085.46875 361.65625 L 1085.445312 361.65625 C 1059.320312 384.1875 1028.285156 405.855469 992.34375 426.652344 C 991.503906 427.140625 990.679688 427.65625 989.878906 428.199219 C 978.71875 435.773438 971.300781 445.597656 967.628906 457.671875 L 967.617188 457.671875 C 960.640625 479.558594 968.414062 497.421875 990.9375 511.261719 L 990.9375 511.265625 C 991.164062 511.402344 991.382812 511.535156 991.597656 511.664062 C 993.890625 513.042969 996.308594 514.191406 998.824219 515.09375 C 1025.445312 524.652344 1042.855469 532.882812 1051.058594 539.785156 C 1051.730469 540.351562 1052.421875 540.894531 1053.128906 541.417969 C 1066.339844 551.148438 1077.800781 563.152344 1087.503906 577.421875 L 1087.496094 577.421875 C 1103.265625 601.328125 1107.265625 618.898438 1099.496094 630.128906 C 1099.230469 630.515625 1098.96875 630.910156 1098.714844 631.304688 C 1089.257812 646.039062 1068.910156 655.644531 1037.671875 660.121094 L 1037.636719 660.121094 C 1028.246094 660.949219 1019.273438 661.363281 1010.722656 661.363281 C 981.722656 661.363281 957.566406 656.597656 938.261719 647.058594 C 932.476562 644.199219 926.339844 642.84375 920.296875 642.84375 C 905.3125 642.84375 890.894531 651.171875 883.8125 665.527344 C 873.875 685.675781 882.136719 710.070312 902.269531 720.019531 C 932.898438 735.152344 969.121094 742.71875 1010.933594 742.71875 C 1022.242188 742.71875 1033.960938 742.164062 1046.085938 741.058594 C 1046.726562 741 1047.363281 740.925781 1047.996094 740.835938 C 1103.796875 733.066406 1143.253906 711.601562 1166.367188 676.445312 L 1166.347656 676.445312 C 1195.074219 634.917969 1191.285156 586.78125 1154.984375 532.035156 C 1154.898438 531.90625 1154.808594 531.773438 1154.722656 531.644531 C 1140.128906 510.1875 1122.785156 491.9375 1102.6875 476.894531 L 1102.652344 476.894531 C 1097.65625 472.777344 1091.679688 468.675781 1084.71875 464.589844 L 1084.683594 464.589844 C 1104.535156 450.957031 1122.78125 436.933594 1139.421875 422.519531 C 1139.671875 422.300781 1139.917969 422.082031 1140.164062 421.859375 C 1167.277344 397.191406 1184.496094 375.75 1191.816406 357.542969 C 1193.90625 352.34375 1195.351562 347.195312 1196.152344 342.09375 C 1196.574219 339.402344 1196.722656 336.679688 1196.601562 333.960938 C 1195.625 312.171875 1184.613281 296.957031 1163.566406 288.3125 L 1163.53125 288.3125 C 1134.339844 275.523438 1111.820312 266.527344 1095.980469 261.328125 L 1095.945312 261.328125 C 1095.113281 260.964844 1094.25 260.609375 1093.363281 260.261719 L 1093.359375 260.261719 C 1079.949219 255.058594 1029.238281 241.789062 941.230469 220.453125 C 938.015625 219.671875 934.796875 219.300781 931.625 219.300781 Z M 931.625 219.300781 " fill-opacity="0.988" fill-rule="nonzero"/></svg>