<svg xmlns="http://www.w3.org/2000/svg" xmlns:xlink="http://www.w3.org/1999/xlink" width="1920" zoomAndPan="magnify" viewBox="0 0 1440 809.999993" height="1080" preserveAspectRatio="xMidYMid meet" version="1.0"><defs><clipPath id="a96ba381a0"><path d="M 81 125.140625 L 798.75 125.140625 L 798.75 611.304688 L 81 611.304688 Z M 81 125.140625 " clip-rule="nonzero"/></clipPath><clipPath id="ae451821d7"><path d="M 770 521 L 828 521 L 828 788.253906 L 770 788.253906 Z M 770 521 " clip-rule="nonzero"/></clipPath></defs><path fill="#0d516b" d="M 562.339844 453.871094 L 347.117188 485.410156 C 327.253906 488.320312 308.792969 474.578125 305.882812 454.707031 L 257.535156 124.613281 C 254.625 104.746094 268.367188 86.28125 288.226562 83.371094 L 503.449219 51.832031 C 523.3125 48.921875 541.773438 62.667969 544.683594 82.53125 L 593.035156 412.628906 C 595.945312 432.496094 582.203125 450.960938 562.339844 453.871094 " fill-opacity="1" fill-rule="nonzero"/><path fill="#9bd8ea" d="M 531.070312 419.136719 L 367.109375 443.164062 C 351.046875 445.515625 336.121094 434.402344 333.765625 418.335938 L 292.507812 136.671875 C 290.152344 120.609375 301.269531 105.675781 317.332031 103.324219 L 481.292969 79.296875 C 497.355469 76.941406 512.285156 88.054688 514.636719 104.121094 L 555.894531 385.789062 C 558.25 401.851562 547.136719 416.785156 531.070312 419.136719 " fill-opacity="1" fill-rule="nonzero"/><path fill="#0d516b" d="M 245.777344 506.238281 L 195.160156 513.65625 C 185.109375 515.128906 175.761719 508.175781 174.292969 498.117188 L 129.847656 194.6875 C 128.371094 184.632812 135.328125 175.289062 145.382812 173.816406 L 195.996094 166.394531 C 206.054688 164.925781 215.394531 171.882812 216.867188 181.9375 L 261.3125 485.367188 C 262.785156 495.417969 255.832031 504.765625 245.777344 506.238281 " fill-opacity="1" fill-rule="nonzero"/><path fill="#0d516b" d="M 720.140625 436.726562 L 669.523438 444.144531 C 659.46875 445.617188 650.128906 438.65625 648.652344 428.605469 L 604.207031 125.175781 C 602.738281 115.121094 609.691406 105.773438 619.746094 104.300781 L 670.359375 96.882812 C 680.414062 95.410156 689.757812 102.367188 691.230469 112.425781 L 735.675781 415.851562 C 737.148438 425.90625 730.191406 435.253906 720.140625 436.726562 " fill-opacity="1" fill-rule="nonzero"/><g clip-path="url(#a96ba381a0)"><path fill="#07c6c4" d="M 751.179688 528.113281 L 187.507812 610.714844 C 157.078125 615.167969 128.800781 594.113281 124.339844 563.679688 L 81.597656 271.851562 C 77.136719 241.417969 98.191406 213.132812 128.617188 208.671875 L 692.292969 126.070312 C 722.714844 121.609375 751 142.671875 755.453125 173.101562 L 798.199219 464.929688 C 802.660156 495.367188 781.609375 523.652344 751.179688 528.113281 " fill-opacity="1" fill-rule="nonzero"/></g><path fill="#0d516b" d="M 249.261719 431.878906 C 265.101562 540.003906 365.570312 614.8125 473.671875 598.972656 C 581.773438 583.132812 656.570312 482.636719 640.730469 374.515625 C 624.894531 266.390625 524.421875 191.578125 416.320312 207.421875 C 308.21875 223.261719 233.425781 323.753906 249.261719 431.878906 " fill-opacity="1" fill-rule="nonzero"/><path fill="#9bd8ea" d="M 288.695312 426.097656 C 301.347656 512.4375 381.574219 572.179688 467.894531 559.527344 C 554.214844 546.878906 613.941406 466.632812 601.292969 380.292969 C 588.648438 293.953125 508.417969 234.214844 422.097656 246.863281 C 335.773438 259.511719 276.050781 339.757812 288.695312 426.097656 " fill-opacity="1" fill-rule="nonzero"/><path fill="#0d516b" d="M 348.605469 417.320312 C 356.402344 470.566406 405.882812 507.410156 459.117188 499.609375 C 512.355469 491.808594 549.1875 442.320312 541.386719 389.070312 C 533.585938 335.824219 484.109375 298.980469 430.871094 306.78125 C 377.640625 314.582031 340.804688 364.074219 348.605469 417.320312 " fill-opacity="1" fill-rule="nonzero"/><path fill="#07c6c4" d="M 422.082031 380.886719 C 425.199219 402.179688 444.988281 416.914062 466.273438 413.796875 C 487.566406 410.675781 502.296875 390.882812 499.175781 369.589844 C 496.054688 348.296875 476.269531 333.5625 454.980469 336.683594 C 433.695312 339.800781 418.960938 359.59375 422.082031 380.886719 " fill-opacity="1" fill-rule="nonzero"/><path fill="#ec4731" d="M 143.148438 273.578125 C 143.070312 288.171875 154.832031 300.0625 169.421875 300.144531 C 184.007812 300.222656 195.894531 288.460938 195.976562 273.867188 C 196.054688 259.277344 184.292969 247.382812 169.707031 247.304688 C 155.121094 247.226562 143.230469 258.992188 143.148438 273.578125 " fill-opacity="1" fill-rule="nonzero"/><g clip-path="url(#ae451821d7)"><path fill="#fa3b62" d="M 770.535156 542.300781 C 770.53125 554.585938 771.113281 566.835938 772.023438 579.074219 C 773.433594 598.140625 775.808594 617.148438 778.066406 636.1875 C 781.328125 663.703125 784.410156 691.257812 785.503906 718.828125 L 782.964844 766.808594 C 782.964844 778.609375 792.550781 788.1875 804.359375 788.1875 C 816.167969 788.1875 825.753906 778.609375 825.753906 766.808594 C 825.609375 755.710938 826.738281 744.621094 827.082031 733.476562 C 827.253906 727.957031 827.273438 722.425781 826.9375 716.875 C 824.90625 675.746094 817.628906 634.785156 814.40625 593.636719 C 813.089844 576.8125 812.703125 559.960938 813.316406 543.097656 C 813.535156 531.300781 804.128906 521.542969 792.324219 521.324219 C 780.515625 521.105469 770.753906 530.503906 770.535156 542.300781 Z M 770.535156 542.300781 " fill-opacity="1" fill-rule="evenodd"/></g><path fill="#fa3b62" d="M 795.199219 562.726562 C 801.523438 567.101562 805.09375 569.667969 808.652344 572.652344 C 812.230469 575.65625 815.820312 579.015625 821.960938 584.617188 L 838.726562 600.386719 C 847.550781 608.867188 856.492188 617.085938 865.957031 624.667969 C 872.589844 629.988281 879.480469 635 886.816406 639.527344 C 902.621094 649.402344 916.820312 655.988281 929.34375 665.609375 C 936.082031 670.785156 942.175781 677.0625 947.78125 685.714844 C 954.332031 695.53125 967.625 698.1875 977.449219 691.644531 C 987.273438 685.097656 989.933594 671.8125 983.382812 661.992188 C 974.484375 649.035156 964.902344 639.753906 954.425781 632.125 C 940.636719 622.078125 925.265625 615.105469 907.9375 604.847656 C 900.488281 600.378906 893.558594 595.324219 886.972656 589.839844 C 879.96875 584.007812 873.339844 577.714844 866.726562 571.328125 L 850.007812 554.875 C 843.5 548.550781 839.671875 544.792969 835.882812 541.378906 C 831.628906 537.546875 827.394531 534.164062 819.785156 528.46875 C 817.804688 526.988281 809.082031 521.464844 803.097656 519.671875 C 795.671875 517.445312 789.277344 518.96875 784.945312 521.042969 C 778.621094 524.070312 773.953125 529.445312 772.519531 538.46875 C 770.902344 550.15625 779.085938 560.960938 790.78125 562.578125 C 792.273438 562.785156 793.753906 562.828125 795.199219 562.726562 Z M 813.507812 549.515625 C 814.1875 547.988281 814.675781 546.273438 814.902344 544.328125 C 814.652344 546.148438 814.175781 547.886719 813.507812 549.515625 Z M 813.507812 549.515625 " fill-opacity="1" fill-rule="evenodd"/><path fill="#fa3b62" d="M 797.992188 705.09375 C 799.617188 701.902344 803.214844 699.152344 807.011719 696.359375 C 816.753906 689.1875 828.316406 682.96875 835.109375 678.066406 C 854.371094 664.863281 872.773438 647.195312 892.574219 632.644531 C 904.011719 624.238281 915.976562 617.039062 928.941406 612.957031 C 940.144531 609.222656 946.207031 597.105469 942.472656 585.910156 C 938.738281 574.714844 926.613281 568.65625 915.410156 572.386719 C 902.359375 576.984375 890.113281 583.824219 878.378906 591.957031 C 855.261719 607.96875 834.1875 629.296875 812.058594 644.851562 C 803.675781 650.421875 788.695312 657.722656 777.480469 666.1875 C 769.921875 671.886719 763.988281 678.378906 760.308594 684.839844 C 754.71875 695.230469 758.621094 708.207031 769.019531 713.796875 C 779.417969 719.386719 792.402344 715.488281 797.992188 705.09375 Z M 797.992188 705.09375 " fill-opacity="1" fill-rule="evenodd"/><path fill="#46bbeb" d="M 1033.671875 411.09375 C 1033.914062 414.109375 1034.238281 417.835938 1034.597656 421.4375 L 1038.460938 475.617188 C 1039.117188 499.679688 1041.152344 525.179688 1041.21875 550.355469 C 1041.261719 566.25 1040.417969 581.992188 1038.035156 597.085938 C 1036.367188 608.769531 1044.5 619.605469 1056.191406 621.277344 C 1067.878906 622.945312 1078.726562 614.816406 1080.394531 603.132812 C 1082.070312 590.035156 1082.691406 576.546875 1082.71875 562.898438 C 1082.78125 533.230469 1079.925781 502.757812 1078.730469 474.246094 L 1076.390625 418.121094 C 1075.902344 409.816406 1075.816406 403.921875 1075.636719 401.089844 C 1075.132812 393.027344 1071.738281 388.960938 1070.828125 387.761719 C 1067.6875 383.621094 1039.566406 369.027344 1032.503906 398.289062 C 1031.53125 402.746094 1032.027344 407.183594 1033.671875 411.09375 Z M 1073.964844 408.75 C 1074.097656 408.34375 1074.210938 407.898438 1074.308594 407.417969 C 1074.207031 407.867188 1074.097656 408.316406 1073.964844 408.75 Z M 1073.964844 408.75 " fill-opacity="1" fill-rule="evenodd"/><path fill="#46bbeb" d="M 1081.800781 423.207031 C 1085.835938 422.148438 1091.695312 420.585938 1094.628906 419.707031 C 1103.210938 417.128906 1116.898438 414.292969 1130.039062 414.53125 C 1135.210938 414.625 1140.304688 415.105469 1144.769531 416.597656 C 1147.367188 417.464844 1149.855469 418.449219 1151.308594 420.597656 C 1151.699219 421.179688 1151.234375 421.847656 1151.066406 422.542969 C 1150.75 423.875 1150.265625 425.222656 1149.65625 426.585938 C 1147.933594 430.429688 1145.453125 434.304688 1142.628906 438.066406 C 1133.519531 450.199219 1121.175781 461.160156 1114.265625 467.164062 C 1114.265625 467.164062 1102.929688 476.132812 1102.929688 476.132812 C 1097.5 480.554688 1088.191406 483.929688 1084.402344 487.011719 C 1082.429688 487.898438 1080.785156 488.855469 1079.496094 489.789062 C 1074.171875 493.636719 1071.554688 498.40625 1070.460938 502.929688 C 1069.316406 507.675781 1069.546875 512.734375 1072.203125 518.015625 C 1073.390625 520.371094 1085.75 535.289062 1103.054688 525.277344 C 1104.089844 524.679688 1105.34375 523.910156 1106.761719 522.988281 C 1111.339844 522.425781 1117.515625 521.785156 1121.222656 521.792969 C 1128.828125 521.820312 1142.882812 522.925781 1155.496094 526.699219 C 1159.363281 527.859375 1163.085938 529.285156 1166.3125 531.101562 C 1168.347656 532.246094 1170.699219 532.941406 1171.0625 535 C 1172.867188 545.203125 1164.632812 551.351562 1155.867188 555.871094 C 1143.09375 562.449219 1127.003906 565.109375 1115.785156 563.640625 C 1113 563.277344 1102.925781 564.039062 1097.484375 562.726562 C 1097.269531 561.722656 1096.980469 560.742188 1096.625 559.796875 L 1096.609375 559.75 L 1096.574219 559.664062 C 1093.507812 551.613281 1085.707031 545.886719 1076.578125 545.886719 C 1064.769531 545.886719 1055.183594 555.464844 1055.183594 567.265625 C 1055.238281 579.046875 1061.539062 589.199219 1073.449219 595.8125 C 1084.808594 602.117188 1103.175781 604.71875 1110.539062 605.59375 C 1132.390625 608.195312 1165.539062 601.417969 1187.058594 585.300781 C 1205.34375 571.609375 1216.109375 552.175781 1211.523438 527.648438 C 1208.964844 513.949219 1199.863281 502.917969 1186.214844 495.394531 C 1177.070312 490.355469 1165.625 486.972656 1154.539062 484.808594 C 1166.285156 473.359375 1179.914062 458.082031 1186.675781 443.390625 C 1194.144531 427.152344 1194.1875 411.238281 1185.394531 397.890625 C 1176.261719 384 1160.191406 376.242188 1141.542969 373.835938 C 1120.800781 371.160156 1096.863281 375.214844 1082.804688 379.191406 C 1074.175781 381.632812 1060.558594 384.210938 1053.023438 389.527344 C 1043.027344 396.582031 1037.996094 406.453125 1040.742188 420.265625 C 1043.136719 431.820312 1054.46875 439.257812 1066.03125 436.863281 C 1073.566406 435.300781 1079.351562 429.949219 1081.800781 423.207031 Z M 1096.574219 559.664062 C 1095.945312 558.042969 1095.164062 557.246094 1094.367188 558.648438 C 1093.125 560.824219 1094.664062 562.039062 1097.414062 562.710938 C 1097.203125 561.65625 1096.933594 560.628906 1096.625 559.796875 Z M 1096.574219 559.664062 " fill-opacity="1" fill-rule="evenodd"/><path fill="#ffad00" d="M 1372.941406 518.390625 C 1358.679688 503.191406 1340.132812 498.398438 1320.757812 501.167969 C 1298.519531 504.347656 1275.175781 518.066406 1260.859375 532.183594 C 1231.953125 560.132812 1227.109375 619.046875 1247.25 658.746094 C 1262.539062 688.871094 1290.289062 708.296875 1329.488281 700.421875 C 1336.667969 698.988281 1343.792969 696.929688 1350.863281 694.527344 C 1365.4375 689.570312 1379.734375 682.953125 1393.722656 677.679688 C 1404.734375 673.421875 1410.214844 661.027344 1405.949219 650.023438 C 1401.6875 639.019531 1389.289062 633.542969 1378.277344 637.800781 C 1366.5625 642.449219 1354.648438 648.082031 1342.515625 652.828125 C 1335.414062 655.601562 1328.25 658.09375 1320.976562 659.679688 C 1297.703125 664.699219 1283.894531 647.308594 1278.21875 627.128906 C 1271.730469 604.058594 1274.183594 575.851562 1289.148438 561.449219 C 1296.820312 554.191406 1308.347656 547.003906 1320.109375 543.832031 C 1327.804688 541.761719 1335.898438 541.128906 1341.371094 547.253906 C 1349.34375 555.960938 1362.886719 556.5625 1371.597656 548.597656 C 1380.308594 540.632812 1380.910156 527.097656 1372.941406 518.390625 Z M 1372.941406 518.390625 " fill-opacity="1" fill-rule="evenodd"/></svg>