<svg xmlns="http://www.w3.org/2000/svg" xmlns:xlink="http://www.w3.org/1999/xlink" width="1920" zoomAndPan="magnify" viewBox="0 0 1440 809.999993" height="1080" preserveAspectRatio="xMidYMid meet" version="1.0"><defs><clipPath id="256c7f570d"><path d="M 81 125.140625 L 798.75 125.140625 L 798.75 611.304688 L 81 611.304688 Z M 81 125.140625 " clip-rule="nonzero"/></clipPath></defs><path fill="#90cc23" d="M 1128.703125 351.5625 C 1136.296875 308.753906 1127.300781 263.21875 1104.039062 226.5 C 1079.390625 187.601562 1038.933594 159.09375 994.050781 148.882812 C 958.953125 140.902344 921.433594 143.964844 888.09375 157.53125 C 878.691406 188.292969 880.503906 222.347656 893.121094 251.9375 C 903.367188 275.964844 920.445312 296.816406 941.046875 312.847656 C 961.652344 328.886719 985.710938 340.210938 1010.8125 347.398438 C 1048.988281 358.339844 1089.851562 359.777344 1128.703125 351.5625 " fill-opacity="1" fill-rule="nonzero"/><path fill="#c4e56b" d="M 995.378906 159.417969 C 975.039062 154.585938 953.902344 153.195312 933.101562 155.335938 C 931.089844 155.5 929.242188 156.472656 927.949219 158.023438 C 926.664062 159.570312 926.058594 161.570312 926.265625 163.574219 C 926.46875 165.582031 927.46875 167.414062 929.039062 168.671875 C 930.617188 169.933594 932.625 170.511719 934.625 170.265625 C 953.742188 168.296875 973.21875 169.578125 991.914062 174.019531 C 999.378906 175.796875 1006.71875 178.0625 1013.878906 180.8125 C 1015.734375 181.546875 1017.8125 181.496094 1019.636719 180.691406 C 1021.46875 179.878906 1022.898438 178.378906 1023.613281 176.507812 C 1024.324219 174.644531 1024.269531 172.566406 1023.453125 170.746094 C 1022.628906 168.917969 1021.117188 167.5 1019.25 166.796875 C 1011.460938 163.804688 1003.484375 161.347656 995.378906 159.417969 " fill-opacity="1" fill-rule="nonzero"/><path fill="#8ab826" d="M 1065.542969 183.699219 C 1076.691406 197.714844 1085.609375 213.503906 1091.761719 230.320312 C 1094.992188 239.164062 1097.496094 248.382812 1097.800781 257.789062 C 1098.109375 267.199219 1096.113281 276.867188 1090.929688 284.726562 C 1084.492188 294.503906 1073.605469 300.746094 1062.238281 303.515625 C 1050.867188 306.289062 1038.96875 305.886719 1027.332031 304.640625 C 981.621094 299.730469 936.007812 280.527344 906.742188 245.046875 C 896.023438 232.054688 887.707031 217.097656 882.226562 201.167969 C 882.648438 218.578125 886.289062 235.914062 893.121094 251.9375 C 903.367188 275.964844 920.445312 296.816406 941.046875 312.855469 C 961.652344 328.886719 985.710938 340.210938 1010.8125 347.398438 C 1048.992188 358.339844 1089.851562 359.777344 1128.707031 351.5625 C 1136.296875 308.753906 1127.308594 263.21875 1104.039062 226.5 C 1093.710938 210.210938 1080.589844 195.761719 1065.542969 183.699219 " fill-opacity="1" fill-rule="nonzero"/><path fill="#bee25e" d="M 891.5 156.21875 C 890.363281 156.652344 889.21875 157.070312 888.09375 157.53125 C 887.875 158.207031 887.71875 158.902344 887.511719 159.585938 C 934.5625 195.9375 981.164062 232.882812 1027.238281 270.464844 C 1060.257812 297.402344 1093.015625 324.625 1125.519531 352.183594 C 1126.574219 351.972656 1127.644531 351.785156 1128.703125 351.5625 C 1128.867188 350.578125 1128.964844 349.589844 1129.140625 348.605469 C 1096.5 320.929688 1063.582031 293.558594 1030.421875 266.511719 C 984.605469 229.132812 938.269531 192.375 891.480469 156.214844 L 891.5 156.21875 " fill-opacity="1" fill-rule="nonzero"/><path fill="#bee25e" d="M 946.964844 202.34375 C 930.5625 212.753906 913.023438 221.394531 894.78125 228.097656 C 891.941406 229.136719 889.078125 230.121094 886.207031 231.070312 C 886.621094 232.710938 887.03125 234.351562 887.503906 235.984375 C 890.527344 235 893.550781 233.976562 896.539062 232.878906 C 915.125 226.058594 932.976562 217.226562 949.691406 206.617188 L 946.964844 202.34375 " fill-opacity="1" fill-rule="nonzero"/><path fill="#bee25e" d="M 1005.96875 249.574219 C 993.203125 256.996094 979.910156 263.480469 966.21875 269.015625 C 949.027344 275.96875 931.1875 281.382812 913.035156 285.167969 C 914.214844 286.664062 915.425781 288.132812 916.652344 289.585938 C 934.210938 285.773438 951.4375 280.484375 968.097656 273.742188 C 982.019531 268.121094 995.546875 261.511719 1008.523438 253.964844 L 1005.96875 249.574219 " fill-opacity="1" fill-rule="nonzero"/><path fill="#bee25e" d="M 1059.535156 293.21875 C 1045.355469 302.4375 1030.527344 310.648438 1015.1875 317.769531 C 1002.027344 323.882812 988.464844 329.164062 974.664062 333.640625 C 976.886719 334.71875 979.148438 335.746094 981.417969 336.746094 C 993.621094 332.589844 1005.628906 327.824219 1017.320312 322.394531 C 1032.878906 315.175781 1047.910156 306.847656 1062.300781 297.492188 L 1059.535156 293.21875 " fill-opacity="1" fill-rule="nonzero"/><path fill="#acdb40" d="M 1105.101562 228.269531 C 1105.589844 245.507812 1104.035156 262.816406 1100.425781 279.671875 C 1097.640625 292.664062 1093.667969 305.394531 1088.546875 317.660156 L 1093.253906 319.625 C 1098.496094 307.074219 1102.566406 294.039062 1105.410156 280.730469 C 1108.472656 266.460938 1110.097656 251.886719 1110.285156 237.300781 C 1108.644531 234.238281 1106.921875 231.222656 1105.101562 228.269531 " fill-opacity="1" fill-rule="nonzero"/><path fill="#bee25e" d="M 1058.179688 178.082031 C 1056.855469 191.3125 1054.992188 204.476562 1052.449219 217.515625 C 1048.734375 236.738281 1043.765625 255.722656 1037.5625 274.296875 L 1042.375 275.894531 C 1048.644531 257.132812 1053.664062 237.925781 1057.417969 218.5 L 1057.425781 218.46875 C 1059.804688 206.273438 1061.609375 193.96875 1062.945312 181.617188 C 1061.382812 180.414062 1059.785156 179.246094 1058.1875 178.089844 L 1058.179688 178.082031 " fill-opacity="1" fill-rule="nonzero"/><path fill="#bee25e" d="M 982.972656 146.769531 C 981.25 146.484375 979.523438 146.246094 977.796875 146.023438 C 978.890625 156.546875 979.445312 167.128906 979.394531 177.707031 C 979.300781 194.207031 977.925781 210.703125 974.964844 226.90625 L 979.976562 227.816406 C 982.953125 211.285156 984.386719 194.492188 984.5 177.726562 C 984.585938 167.382812 984.015625 157.050781 982.972656 146.769531 " fill-opacity="1" fill-rule="nonzero"/><path fill="#acdb40" d="M 1071.558594 300.347656 C 1069.773438 301.128906 1067.953125 301.828125 1066.097656 302.417969 C 1085.996094 318.894531 1105.816406 335.476562 1125.523438 352.183594 C 1126.582031 351.972656 1127.644531 351.789062 1128.707031 351.5625 C 1128.875 350.578125 1128.972656 349.589844 1129.140625 348.605469 C 1110.042969 332.410156 1090.832031 316.332031 1071.554688 300.347656 L 1071.558594 300.347656 " fill-opacity="1" fill-rule="nonzero"/><path fill="#acdb40" d="M 1049.515625 305.394531 C 1046.070312 305.617188 1042.601562 305.628906 1039.136719 305.507812 C 1031.304688 309.886719 1023.328125 313.992188 1015.1875 317.777344 C 1002.027344 323.882812 988.472656 329.164062 974.664062 333.640625 C 976.894531 334.71875 979.148438 335.746094 981.417969 336.746094 C 993.621094 332.589844 1005.628906 327.824219 1017.320312 322.398438 C 1028.332031 317.285156 1039.070312 311.589844 1049.515625 305.394531 " fill-opacity="1" fill-rule="nonzero"/><path fill="#acdb40" d="M 943.890625 277.046875 C 933.75 280.269531 923.445312 283 913.035156 285.167969 C 914.207031 286.652344 915.40625 288.109375 916.636719 289.546875 C 916.628906 289.554688 916.628906 289.566406 916.625 289.574219 C 927.816406 287.144531 938.863281 284.113281 949.722656 280.488281 C 947.746094 279.375 945.789062 278.226562 943.859375 277.03125 L 943.890625 277.046875 " fill-opacity="1" fill-rule="nonzero"/><path fill="#acdb40" d="M 894.792969 228.085938 C 894.789062 228.09375 894.792969 228.097656 894.792969 228.097656 C 891.960938 229.136719 889.101562 230.117188 886.234375 231.0625 C 886.324219 231.296875 886.34375 231.53125 886.40625 231.765625 C 886.683594 232.871094 886.976562 233.976562 887.277344 235.078125 C 887.363281 235.378906 887.457031 235.675781 887.53125 235.976562 C 890.546875 234.992188 893.558594 233.972656 896.539062 232.878906 C 896.890625 232.75 897.214844 232.613281 897.558594 232.484375 C 896.613281 231.039062 895.683594 229.574219 894.800781 228.09375 L 894.792969 228.085938 " fill-opacity="1" fill-rule="nonzero"/><path fill="#dbefa3" d="M 983.820312 157.097656 C 982.105469 156.804688 980.390625 156.507812 978.667969 156.269531 C 979.019531 161.355469 979.253906 166.453125 979.339844 171.550781 C 981.042969 171.828125 982.75 172.097656 984.445312 172.429688 C 984.359375 167.320312 984.164062 162.210938 983.824219 157.105469 L 983.820312 157.097656 " fill-opacity="1" fill-rule="nonzero"/><path fill="#5d2914" d="M 1126.199219 362.015625 C 1127.234375 335.359375 1128.792969 308.722656 1130.871094 282.125 C 1132.15625 265.613281 1133.648438 249.117188 1135.332031 232.644531 L 1193.992188 237.945312 C 1187.164062 261.675781 1181.332031 285.699219 1176.519531 309.917969 C 1172.796875 328.691406 1169.679688 347.589844 1167.191406 366.566406 L 1126.199219 362.015625 " fill-opacity="1" fill-rule="nonzero"/><path fill="#3c1e16" d="M 1183.164062 236.96875 C 1178.8125 249.144531 1173.871094 261.109375 1168.273438 272.777344 C 1162.613281 284.574219 1156.160156 296.300781 1146.566406 305.191406 C 1141.292969 310.070312 1135.125 313.9375 1128.488281 316.6875 C 1127.566406 331.789062 1126.792969 346.902344 1126.199219 362.015625 L 1167.191406 366.5625 C 1169.679688 347.589844 1172.796875 328.691406 1176.519531 309.917969 C 1181.328125 285.691406 1187.160156 261.675781 1193.992188 237.945312 L 1183.164062 236.96875 " fill-opacity="1" fill-rule="nonzero"/><path fill="#9c4d24" d="M 1146.605469 244.691406 C 1144.675781 244.539062 1142.992188 245.988281 1142.84375 247.917969 L 1140.464844 274.289062 C 1140.285156 276.214844 1141.707031 277.925781 1143.636719 278.097656 C 1145.558594 278.273438 1147.261719 276.847656 1147.433594 274.917969 L 1149.804688 248.546875 C 1150.015625 246.589844 1148.570312 244.84375 1146.605469 244.691406 " fill-opacity="1" fill-rule="nonzero"/><path fill="#e51d25" d="M 1149.734375 755.082031 C 1127.625 768.328125 1101.675781 775.050781 1075.929688 774.195312 C 1041.980469 773.074219 1009.316406 758.988281 982.09375 738.667969 C 944.433594 710.5625 916.425781 670.796875 897.75 627.65625 C 873.632812 571.941406 864.6875 507.546875 884.511719 450.15625 C 895.660156 417.875 915.769531 388.644531 942.378906 367.257812 C 968.996094 345.875 1002.078125 332.484375 1036.117188 330.070312 C 1075.0625 327.300781 1114.867188 339.109375 1146.015625 362.664062 C 1167.265625 344.792969 1193.917969 333.445312 1221.527344 330.519531 C 1249.132812 327.589844 1277.566406 333.101562 1302.09375 346.125 C 1341.007812 366.796875 1368.453125 405.332031 1382.460938 447.128906 C 1395.742188 486.757812 1397.949219 529.796875 1390.628906 570.949219 C 1383.316406 612.09375 1366.640625 651.359375 1343.6875 686.273438 C 1321.164062 720.53125 1290.957031 751.824219 1252.117188 764.910156 C 1218.648438 776.195312 1180.449219 772.523438 1149.734375 755.082031 " fill-opacity="1" fill-rule="nonzero"/><path fill="#af1d23" d="M 1291.824219 341.21875 C 1300.921875 385.550781 1300.023438 431.945312 1288.875 475.8125 C 1275.835938 527.109375 1248.921875 574.800781 1211.761719 612.460938 C 1174.597656 650.128906 1127.28125 677.660156 1076.195312 691.363281 C 1031.203125 703.421875 983.394531 704.714844 937.789062 695.273438 C 950.695312 711.542969 965.445312 726.246094 982.09375 738.667969 C 1009.316406 758.988281 1041.988281 773.070312 1075.929688 774.203125 C 1101.679688 775.050781 1127.625 768.328125 1149.726562 755.082031 C 1180.449219 772.527344 1218.648438 776.195312 1252.125 764.914062 C 1290.957031 751.824219 1321.164062 720.53125 1343.6875 686.273438 C 1366.640625 651.351562 1383.316406 612.09375 1390.628906 570.945312 C 1397.949219 529.796875 1395.742188 486.757812 1382.460938 447.128906 C 1368.453125 405.332031 1341.015625 366.796875 1302.09375 346.125 C 1298.746094 344.34375 1295.308594 342.71875 1291.824219 341.21875 " fill-opacity="1" fill-rule="nonzero"/><path fill="#f0617a" d="M 999.890625 377.539062 C 997.78125 377.699219 995.722656 378.246094 993.820312 379.15625 C 973.9375 388.3125 956.398438 402.1875 942.902344 419.425781 C 927.554688 439.023438 917.703125 462.628906 914.601562 487.335938 C 914.023438 491.84375 915.257812 496.394531 918.035156 499.988281 C 920.816406 503.585938 924.90625 505.921875 929.417969 506.496094 C 933.921875 507.058594 938.472656 505.8125 942.046875 503.015625 C 945.636719 500.222656 947.953125 496.121094 948.507812 491.605469 C 950.828125 473.144531 958.320312 455.15625 969.789062 440.511719 C 979.886719 427.609375 993.226562 417.070312 1008.105469 410.21875 C 1015.703125 406.84375 1019.765625 398.484375 1017.738281 390.417969 C 1015.710938 382.355469 1008.175781 376.917969 999.890625 377.539062 " fill-opacity="1" fill-rule="nonzero"/><path fill="#af1d23" d="M 945.378906 397.644531 C 945.378906 398.78125 944.925781 399.863281 944.125 400.667969 C 943.324219 401.46875 942.238281 401.921875 941.101562 401.921875 C 938.746094 401.921875 936.835938 400.003906 936.835938 397.644531 C 936.835938 395.28125 938.746094 393.367188 941.101562 393.367188 C 942.238281 393.367188 943.324219 393.816406 944.125 394.625 C 944.925781 395.421875 945.378906 396.511719 945.378906 397.644531 " fill-opacity="1" fill-rule="nonzero"/><path fill="#af1d23" d="M 1027.644531 405.355469 C 1027.644531 407.179688 1026.164062 408.664062 1024.335938 408.664062 C 1022.511719 408.664062 1021.039062 407.179688 1021.039062 405.355469 C 1021.039062 403.535156 1022.511719 402.050781 1024.335938 402.050781 C 1026.164062 402.050781 1027.644531 403.527344 1027.644531 405.355469 " fill-opacity="1" fill-rule="nonzero"/><path fill="#af1d23" d="M 920.585938 439.832031 C 920.585938 441.503906 919.921875 443.109375 918.742188 444.289062 C 917.558594 445.476562 915.953125 446.140625 914.277344 446.140625 C 910.796875 446.140625 907.96875 443.3125 907.96875 439.832031 C 907.96875 436.34375 910.796875 433.515625 914.277344 433.515625 C 915.953125 433.515625 917.558594 434.179688 918.742188 435.367188 C 919.921875 436.546875 920.585938 438.152344 920.585938 439.832031 " fill-opacity="1" fill-rule="nonzero"/><path fill="#af1d23" d="M 1010.050781 431.929688 C 1010.050781 435.027344 1007.535156 437.542969 1004.445312 437.542969 C 1001.347656 437.542969 998.839844 435.027344 998.839844 431.929688 C 998.839844 428.828125 1001.347656 426.320312 1004.445312 426.320312 C 1007.535156 426.320312 1010.050781 428.828125 1010.050781 431.929688 " fill-opacity="1" fill-rule="nonzero"/><path fill="#af1d23" d="M 979.664062 475.117188 C 979.664062 477.308594 977.890625 479.089844 975.695312 479.089844 C 974.644531 479.089844 973.628906 478.671875 972.886719 477.921875 C 972.144531 477.179688 971.726562 476.167969 971.726562 475.117188 C 971.726562 474.058594 972.144531 473.050781 972.886719 472.300781 C 973.628906 471.558594 974.644531 471.140625 975.695312 471.140625 C 977.890625 471.140625 979.664062 472.917969 979.664062 475.117188 " fill-opacity="1" fill-rule="nonzero"/><path fill="#f0364d" d="M 944.707031 478.507812 C 944.707031 479.871094 944.167969 481.183594 943.203125 482.148438 C 942.238281 483.105469 940.929688 483.652344 939.566406 483.652344 C 938.207031 483.652344 936.898438 483.105469 935.933594 482.148438 C 934.96875 481.183594 934.425781 479.871094 934.425781 478.507812 C 934.425781 477.140625 934.96875 475.835938 935.933594 474.871094 C 936.898438 473.90625 938.207031 473.367188 939.566406 473.367188 C 940.929688 473.367188 942.238281 473.90625 943.203125 474.871094 C 944.167969 475.835938 944.707031 477.140625 944.707031 478.507812 " fill-opacity="1" fill-rule="nonzero"/><path fill="#af1d23" d="M 956.230469 520.890625 C 956.230469 522.257812 955.683594 523.566406 954.726562 524.53125 C 953.761719 525.496094 952.453125 526.039062 951.089844 526.039062 C 949.722656 526.039062 948.414062 525.496094 947.457031 524.53125 C 946.492188 523.566406 945.949219 522.257812 945.949219 520.890625 C 945.949219 519.527344 946.492188 518.214844 947.457031 517.257812 C 948.414062 516.292969 949.722656 515.75 951.089844 515.75 C 952.453125 515.75 953.761719 516.292969 954.726562 517.257812 C 955.683594 518.214844 956.230469 519.527344 956.230469 520.890625 " fill-opacity="1" fill-rule="nonzero"/><path fill="#af1d23" d="M 904.972656 542.976562 C 904.972656 545.300781 903.089844 547.179688 900.769531 547.179688 C 899.65625 547.179688 898.578125 546.738281 897.792969 545.953125 C 897.007812 545.160156 896.5625 544.089844 896.5625 542.976562 C 896.5625 541.855469 897.007812 540.785156 897.792969 540 C 898.578125 539.210938 899.65625 538.769531 900.769531 538.769531 C 903.089844 538.769531 904.972656 540.652344 904.972656 542.976562 " fill-opacity="1" fill-rule="nonzero"/><path fill="#af1d23" d="M 934.511719 567.15625 C 934.511719 569.738281 932.421875 571.835938 929.84375 571.835938 C 928.601562 571.835938 927.414062 571.34375 926.542969 570.464844 C 925.65625 569.585938 925.164062 568.398438 925.164062 567.15625 C 925.164062 565.914062 925.65625 564.726562 926.542969 563.855469 C 927.414062 562.972656 928.601562 562.480469 929.84375 562.480469 C 932.421875 562.480469 934.511719 564.574219 934.511719 567.15625 " fill-opacity="1" fill-rule="nonzero"/><path fill="#af1d23" d="M 1035.257812 366.175781 C 1035.257812 368.085938 1033.710938 369.644531 1031.792969 369.644531 C 1029.875 369.644531 1028.320312 368.085938 1028.320312 366.175781 C 1028.324219 364.253906 1029.875 362.699219 1031.792969 362.699219 C 1033.710938 362.699219 1035.257812 364.253906 1035.257812 366.175781 " fill-opacity="1" fill-rule="nonzero"/><path fill="#af1d23" d="M 902.351562 494.636719 C 902.351562 496.703125 900.679688 498.375 898.617188 498.375 C 896.550781 498.375 894.875 496.703125 894.875 494.636719 C 894.875 492.570312 896.550781 490.898438 898.617188 490.898438 C 900.679688 490.898438 902.351562 492.570312 902.351562 494.636719 " fill-opacity="1" fill-rule="nonzero"/><path fill="#f0364d" d="M 968.097656 420.378906 C 968.097656 422.074219 966.722656 423.453125 965.027344 423.453125 C 963.335938 423.453125 961.960938 422.074219 961.960938 420.378906 C 961.960938 418.679688 963.335938 417.308594 965.027344 417.308594 C 966.722656 417.308594 968.097656 418.679688 968.097656 420.378906 " fill-opacity="1" fill-rule="nonzero"/><path fill="#af1d23" d="M 989.019531 362.699219 C 989.019531 364.613281 987.464844 366.167969 985.546875 366.167969 C 983.636719 366.167969 982.082031 364.613281 982.082031 362.699219 C 982.082031 360.78125 983.636719 359.226562 985.546875 359.226562 C 987.464844 359.226562 989.019531 360.78125 989.019531 362.699219 " fill-opacity="1" fill-rule="nonzero"/><path fill="#393637" d="M 1052.925781 482.019531 C 1031.632812 482.011719 1014.191406 499.472656 1014.191406 520.785156 C 1014.128906 522.945312 1014.945312 525.042969 1016.453125 526.59375 C 1017.957031 528.140625 1020.03125 529.015625 1022.191406 529.015625 C 1024.355469 529.015625 1026.425781 528.140625 1027.933594 526.59375 C 1029.4375 525.042969 1030.253906 522.945312 1030.195312 520.785156 C 1030.195312 508.128906 1040.285156 498.03125 1052.925781 498.03125 C 1065.574219 498.03125 1075.648438 508.128906 1075.648438 520.785156 C 1075.640625 522.914062 1076.484375 524.949219 1077.988281 526.457031 C 1079.496094 527.964844 1081.535156 528.8125 1083.660156 528.8125 C 1085.789062 528.8125 1087.820312 527.964844 1089.328125 526.457031 C 1090.832031 524.949219 1091.675781 522.914062 1091.675781 520.785156 C 1091.675781 499.472656 1074.226562 482.011719 1052.925781 482.019531 " fill-opacity="1" fill-rule="nonzero"/><path fill="#393637" d="M 1215.476562 482.019531 C 1194.175781 482.011719 1176.738281 499.472656 1176.738281 520.785156 C 1176.675781 522.945312 1177.492188 525.042969 1178.996094 526.59375 C 1180.511719 528.140625 1182.582031 529.015625 1184.738281 529.015625 C 1186.902344 529.015625 1188.972656 528.140625 1190.476562 526.59375 C 1191.984375 525.042969 1192.800781 522.945312 1192.746094 520.785156 C 1192.746094 508.128906 1202.835938 498.03125 1215.476562 498.03125 C 1228.121094 498.03125 1238.191406 508.128906 1238.191406 520.785156 C 1238.132812 522.953125 1238.941406 525.046875 1240.449219 526.597656 C 1241.960938 528.152344 1244.03125 529.035156 1246.195312 529.035156 C 1248.359375 529.035156 1250.433594 528.152344 1251.941406 526.597656 C 1253.445312 525.046875 1254.261719 522.953125 1254.203125 520.785156 C 1254.203125 499.472656 1236.777344 482.019531 1215.476562 482.019531 " fill-opacity="1" fill-rule="nonzero"/><path fill="#f3637a" d="M 1058.699219 571.472656 C 1058.699219 579.074219 1048.734375 585.238281 1036.445312 585.238281 C 1030.542969 585.238281 1024.882812 583.785156 1020.710938 581.203125 C 1016.539062 578.621094 1014.191406 575.125 1014.191406 571.472656 C 1014.191406 567.820312 1016.539062 564.320312 1020.710938 561.738281 C 1024.882812 559.160156 1030.542969 557.710938 1036.445312 557.710938 C 1048.734375 557.710938 1058.699219 563.871094 1058.699219 571.472656 " fill-opacity="1" fill-rule="nonzero"/><path fill="#f3637a" d="M 1254.207031 571.472656 C 1254.207031 575.125 1251.859375 578.621094 1247.6875 581.203125 C 1243.515625 583.785156 1237.855469 585.238281 1231.953125 585.238281 C 1226.054688 585.238281 1220.390625 583.785156 1216.214844 581.203125 C 1212.042969 578.621094 1209.703125 575.125 1209.703125 571.472656 C 1209.703125 567.820312 1212.042969 564.320312 1216.214844 561.738281 C 1220.390625 559.160156 1226.054688 557.710938 1231.953125 557.710938 C 1237.855469 557.710938 1243.515625 559.160156 1247.6875 561.738281 C 1251.859375 564.320312 1254.207031 567.820312 1254.207031 571.472656 " fill-opacity="1" fill-rule="nonzero"/><path fill="#393637" d="M 1166.460938 550.453125 C 1163.804688 550.484375 1161.484375 552.242188 1160.726562 554.796875 C 1157.09375 566.515625 1146.261719 575.007812 1133.21875 575.007812 C 1120.226562 575.007812 1109.449219 566.597656 1105.773438 554.941406 C 1105.332031 553.363281 1104.265625 552.027344 1102.824219 551.246094 C 1101.386719 550.460938 1099.6875 550.300781 1098.121094 550.792969 C 1096.5625 551.285156 1095.257812 552.390625 1094.527344 553.855469 C 1093.796875 555.324219 1093.683594 557.027344 1094.226562 558.578125 C 1099.457031 575.167969 1114.96875 587.117188 1133.21875 587.117188 C 1151.539062 587.117188 1167.125 575.082031 1172.292969 558.386719 C 1172.894531 556.527344 1172.570312 554.492188 1171.414062 552.917969 C 1170.257812 551.34375 1168.410156 550.429688 1166.460938 550.453125 " fill-opacity="1" fill-rule="nonzero"/><path fill="#0d516b" d="M 562.339844 453.871094 L 347.117188 485.410156 C 327.253906 488.320312 308.792969 474.578125 305.882812 454.707031 L 257.535156 124.613281 C 254.625 104.746094 268.367188 86.28125 288.226562 83.371094 L 503.449219 51.832031 C 523.3125 48.921875 541.773438 62.667969 544.683594 82.53125 L 593.035156 412.628906 C 595.945312 432.496094 582.203125 450.960938 562.339844 453.871094 " fill-opacity="1" fill-rule="nonzero"/><path fill="#9bd8ea" d="M 531.070312 419.136719 L 367.109375 443.164062 C 351.046875 445.515625 336.121094 434.402344 333.765625 418.335938 L 292.507812 136.671875 C 290.152344 120.609375 301.269531 105.675781 317.332031 103.324219 L 481.292969 79.296875 C 497.355469 76.941406 512.285156 88.054688 514.636719 104.121094 L 555.894531 385.789062 C 558.25 401.851562 547.136719 416.785156 531.070312 419.136719 " fill-opacity="1" fill-rule="nonzero"/><path fill="#0d516b" d="M 245.777344 506.238281 L 195.160156 513.65625 C 185.109375 515.128906 175.761719 508.175781 174.292969 498.117188 L 129.847656 194.6875 C 128.371094 184.632812 135.328125 175.289062 145.382812 173.816406 L 195.996094 166.394531 C 206.054688 164.925781 215.394531 171.882812 216.867188 181.9375 L 261.3125 485.367188 C 262.785156 495.417969 255.832031 504.765625 245.777344 506.238281 " fill-opacity="1" fill-rule="nonzero"/><path fill="#0d516b" d="M 720.140625 436.726562 L 669.523438 444.144531 C 659.46875 445.617188 650.128906 438.65625 648.652344 428.605469 L 604.207031 125.175781 C 602.738281 115.121094 609.691406 105.773438 619.746094 104.300781 L 670.359375 96.882812 C 680.414062 95.410156 689.757812 102.367188 691.230469 112.425781 L 735.675781 415.851562 C 737.148438 425.90625 730.191406 435.253906 720.140625 436.726562 " fill-opacity="1" fill-rule="nonzero"/><g clip-path="url(#256c7f570d)"><path fill="#07c6c4" d="M 751.179688 528.113281 L 187.507812 610.714844 C 157.078125 615.167969 128.800781 594.113281 124.339844 563.679688 L 81.597656 271.851562 C 77.136719 241.417969 98.191406 213.132812 128.617188 208.671875 L 692.292969 126.070312 C 722.714844 121.609375 751 142.671875 755.453125 173.101562 L 798.199219 464.929688 C 802.660156 495.367188 781.609375 523.652344 751.179688 528.113281 " fill-opacity="1" fill-rule="nonzero"/></g><path fill="#0d516b" d="M 249.261719 431.878906 C 265.101562 540.003906 365.570312 614.8125 473.671875 598.972656 C 581.773438 583.132812 656.570312 482.636719 640.730469 374.515625 C 624.894531 266.390625 524.421875 191.578125 416.320312 207.421875 C 308.21875 223.261719 233.425781 323.753906 249.261719 431.878906 " fill-opacity="1" fill-rule="nonzero"/><path fill="#9bd8ea" d="M 288.695312 426.097656 C 301.347656 512.4375 381.574219 572.179688 467.894531 559.527344 C 554.214844 546.878906 613.941406 466.632812 601.292969 380.292969 C 588.648438 293.953125 508.417969 234.214844 422.097656 246.863281 C 335.773438 259.511719 276.050781 339.757812 288.695312 426.097656 " fill-opacity="1" fill-rule="nonzero"/><path fill="#0d516b" d="M 348.605469 417.320312 C 356.402344 470.566406 405.882812 507.410156 459.117188 499.609375 C 512.355469 491.808594 549.1875 442.320312 541.386719 389.070312 C 533.585938 335.824219 484.109375 298.980469 430.871094 306.78125 C 377.640625 314.582031 340.804688 364.074219 348.605469 417.320312 " fill-opacity="1" fill-rule="nonzero"/><path fill="#07c6c4" d="M 422.082031 380.886719 C 425.199219 402.179688 444.988281 416.914062 466.273438 413.796875 C 487.566406 410.675781 502.296875 390.882812 499.175781 369.589844 C 496.054688 348.296875 476.269531 333.5625 454.980469 336.683594 C 433.695312 339.800781 418.960938 359.59375 422.082031 380.886719 " fill-opacity="1" fill-rule="nonzero"/><path fill="#ec4731" d="M 143.148438 273.578125 C 143.070312 288.171875 154.832031 300.0625 169.421875 300.144531 C 184.007812 300.222656 195.894531 288.460938 195.976562 273.867188 C 196.054688 259.277344 184.292969 247.382812 169.707031 247.304688 C 155.121094 247.226562 143.230469 258.992188 143.148438 273.578125 " fill-opacity="1" fill-rule="nonzero"/></svg>