<svg width="584" height="17" viewBox="0 0 584 17" fill="none" xmlns="http://www.w3.org/2000/svg">
<path d="M6.46259 9.94531C6.50425 9.60677 6.48081 9.30729 6.39227 9.04688C6.30894 8.78125 6.17092 8.55469 5.97821 8.36719C5.79071 8.17448 5.56675 8.00781 5.30634 7.86719C5.05113 7.72656 4.77509 7.59896 4.47821 7.48438C4.11884 7.32812 3.78029 7.15885 3.46259 6.97656C3.14488 6.78906 2.86623 6.57031 2.62665 6.32031C2.39227 6.07031 2.21519 5.78125 2.0954 5.45312C1.98081 5.125 1.94436 4.74219 1.98602 4.30469C2.01727 3.84115 2.13446 3.42188 2.33759 3.04688C2.54071 2.67188 2.80373 2.35156 3.12665 2.08594C3.44956 1.8151 3.81154 1.61198 4.21259 1.47656C4.61884 1.34115 5.04852 1.27865 5.50165 1.28906C6.13706 1.30469 6.66571 1.47135 7.08759 1.78906C7.51467 2.10677 7.82196 2.52083 8.00946 3.03125C8.19696 3.53646 8.26206 4.08594 8.20477 4.67969L7.32977 4.6875C7.37144 4.25 7.33498 3.83854 7.2204 3.45312C7.11102 3.06771 6.9105 2.7526 6.61884 2.50781C6.33238 2.26302 5.94175 2.13542 5.44696 2.125C5.00425 2.11458 4.598 2.19792 4.22821 2.375C3.85842 2.54688 3.55113 2.79688 3.30634 3.125C3.06675 3.44792 2.92092 3.83073 2.86884 4.27344C2.83759 4.60156 2.86623 4.88802 2.95477 5.13281C3.04852 5.3776 3.18654 5.59115 3.36884 5.77344C3.55634 5.95573 3.77509 6.11719 4.02509 6.25781C4.27509 6.39323 4.5355 6.51302 4.80634 6.61719C5.19696 6.76823 5.55373 6.94271 5.87665 7.14062C6.20477 7.33333 6.48602 7.5625 6.7204 7.82812C6.95477 8.08854 7.12925 8.39323 7.24384 8.74219C7.35842 9.08594 7.39488 9.48177 7.35321 9.92969C7.30634 10.4141 7.18134 10.8464 6.97821 11.2266C6.77509 11.6068 6.50686 11.9297 6.17352 12.1953C5.8454 12.4557 5.473 12.6562 5.05634 12.7969C4.63967 12.9323 4.19696 12.9948 3.72821 12.9844C3.23342 12.9688 2.79331 12.875 2.4079 12.7031C2.02248 12.5312 1.69956 12.2891 1.43915 11.9766C1.17873 11.6641 0.988627 11.3047 0.868835 10.8984C0.754252 10.487 0.720398 10.0417 0.767273 9.5625H1.65009C1.61884 9.92708 1.63967 10.2656 1.71259 10.5781C1.7855 10.8854 1.9105 11.1562 2.08759 11.3906C2.26988 11.625 2.50165 11.8073 2.7829 11.9375C3.06936 12.0677 3.40269 12.138 3.7829 12.1484C4.23602 12.1589 4.65529 12.0755 5.04071 11.8984C5.43134 11.7214 5.75165 11.4688 6.00165 11.1406C6.25686 10.8073 6.4105 10.4089 6.46259 9.94531ZM9.15946 9.03125L9.26102 8.16406C9.32873 7.67448 9.44852 7.19531 9.6204 6.72656C9.79227 6.2526 10.024 5.82031 10.3157 5.42969C10.6074 5.03906 10.9615 4.73438 11.3782 4.51562C11.8001 4.29167 12.2897 4.1875 12.847 4.20312C13.3886 4.21875 13.8287 4.34896 14.1673 4.59375C14.5058 4.83333 14.761 5.14844 14.9329 5.53906C15.11 5.92969 15.222 6.35156 15.2688 6.80469C15.3209 7.25781 15.3209 7.70833 15.2688 8.15625L15.1595 9.03906C15.0918 9.51823 14.972 9.9974 14.8001 10.4766C14.6282 10.9505 14.3964 11.3802 14.1048 11.7656C13.8131 12.151 13.4563 12.4557 13.0345 12.6797C12.6178 12.9036 12.1256 13.0078 11.5579 12.9922C11.0266 12.9766 10.5918 12.8464 10.2532 12.6016C9.91467 12.3516 9.65686 12.0339 9.47977 11.6484C9.30269 11.2578 9.19071 10.8359 9.14384 10.3828C9.09696 9.92969 9.10217 9.47917 9.15946 9.03125ZM10.1282 8.15625L10.0188 9.05469C9.98759 9.36198 9.97717 9.69531 9.98759 10.0547C10.0032 10.4089 10.0631 10.7448 10.1673 11.0625C10.2714 11.3802 10.4381 11.6406 10.6673 11.8438C10.9016 12.0469 11.2194 12.1562 11.6204 12.1719C12.0631 12.1927 12.4433 12.112 12.761 11.9297C13.0787 11.7422 13.3418 11.4922 13.5501 11.1797C13.7584 10.8672 13.9225 10.5234 14.0423 10.1484C14.1673 9.77344 14.2532 9.40365 14.3001 9.03906L14.4173 8.14844C14.4537 7.83594 14.4615 7.50521 14.4407 7.15625C14.4251 6.80208 14.3652 6.46615 14.261 6.14844C14.1569 5.82552 13.985 5.5599 13.7454 5.35156C13.511 5.14323 13.1933 5.03125 12.7923 5.01562C12.3652 5 11.9954 5.08594 11.6829 5.27344C11.3704 5.46094 11.1074 5.71354 10.8938 6.03125C10.6803 6.34896 10.511 6.69271 10.386 7.0625C10.261 7.42708 10.1751 7.79167 10.1282 8.15625ZM21.2782 10.8359L22.3954 4.36719H23.247L21.7782 12.8203H20.9579L21.2782 10.8359ZM21.7079 9.29688L22.0985 9.28125C22.0256 9.72917 21.9188 10.1771 21.7782 10.625C21.6376 11.0729 21.4449 11.4792 21.2001 11.8438C20.9553 12.2031 20.6428 12.4896 20.2626 12.7031C19.8876 12.9115 19.4319 13.0052 18.8954 12.9844C18.4579 12.9792 18.1089 12.8776 17.8485 12.6797C17.5881 12.4766 17.3954 12.2161 17.2704 11.8984C17.1454 11.5807 17.0725 11.237 17.0516 10.8672C17.0308 10.4922 17.0386 10.1302 17.0751 9.78125L17.9813 4.36719H18.8485L17.9423 9.80469C17.9214 10.0339 17.911 10.2812 17.911 10.5469C17.911 10.8125 17.9449 11.0651 18.0126 11.3047C18.0855 11.5391 18.2027 11.7344 18.3641 11.8906C18.5308 12.0469 18.7626 12.1328 19.0595 12.1484C19.6272 12.1693 20.0881 12.0391 20.4423 11.7578C20.8016 11.4766 21.0803 11.1146 21.2782 10.6719C21.4761 10.2292 21.6194 9.77083 21.7079 9.29688ZM26.2485 5.75781L25.0298 12.8203H24.1626L25.6313 4.36719H26.4751L26.2485 5.75781ZM28.8657 4.30469L28.7407 5.16406C28.647 5.14844 28.5558 5.13542 28.4673 5.125C28.3839 5.10938 28.3006 5.10156 28.2173 5.10156C27.8214 5.09115 27.4803 5.17448 27.1938 5.35156C26.9126 5.52865 26.6756 5.76302 26.4829 6.05469C26.2954 6.34115 26.1391 6.65625 26.0141 7C25.8891 7.33854 25.785 7.66667 25.7016 7.98438L25.3891 8.11719C25.4516 7.72135 25.5428 7.29427 25.6626 6.83594C25.7876 6.3776 25.9595 5.94531 26.1782 5.53906C26.4022 5.1276 26.686 4.79688 27.0298 4.54688C27.3787 4.29167 27.8084 4.17448 28.3188 4.19531C28.4126 4.19531 28.5037 4.20573 28.5923 4.22656C28.686 4.2474 28.7772 4.27344 28.8657 4.30469ZM31.5938 12.1719C32.0157 12.1927 32.3725 12.1172 32.6641 11.9453C32.9558 11.7734 33.1902 11.5365 33.3673 11.2344C33.5496 10.9323 33.6876 10.5911 33.7813 10.2109L34.5704 10.2031C34.4871 10.724 34.3126 11.2005 34.047 11.6328C33.7813 12.0599 33.4376 12.3984 33.0157 12.6484C32.5938 12.8932 32.1016 13.0078 31.5391 12.9922C30.9871 12.9766 30.5418 12.8542 30.2032 12.625C29.8647 12.3906 29.6095 12.0833 29.4376 11.7031C29.2709 11.3229 29.1694 10.9062 29.1329 10.4531C29.0964 9.99479 29.1043 9.53646 29.1563 9.07812L29.2891 8.11719C29.3569 7.61198 29.4714 7.125 29.6329 6.65625C29.7944 6.18229 30.0157 5.75781 30.297 5.38281C30.5782 5.00781 30.9272 4.71354 31.3438 4.5C31.7605 4.28646 32.2553 4.1901 32.8282 4.21094C33.4063 4.22656 33.8647 4.3776 34.2032 4.66406C34.5418 4.94531 34.7813 5.3151 34.922 5.77344C35.0626 6.22656 35.1173 6.71094 35.086 7.22656L34.2579 7.21875C34.2839 6.85938 34.2579 6.51562 34.1798 6.1875C34.1016 5.85938 33.9506 5.58854 33.7266 5.375C33.5079 5.15625 33.1902 5.03906 32.7735 5.02344C32.3256 5.0026 31.9454 5.08073 31.6329 5.25781C31.3204 5.42969 31.0626 5.66927 30.8595 5.97656C30.6615 6.27865 30.5053 6.61719 30.3907 6.99219C30.2761 7.36198 30.1954 7.73698 30.1485 8.11719L30.0235 9.07812C29.9819 9.41146 29.961 9.75781 29.961 10.1172C29.9662 10.4714 30.0157 10.8021 30.1095 11.1094C30.2032 11.4167 30.3673 11.6693 30.6016 11.8672C30.8412 12.0599 31.172 12.1615 31.5938 12.1719ZM38.8454 12.9844C38.3037 12.974 37.8558 12.8568 37.5016 12.6328C37.1527 12.4089 36.8819 12.1146 36.6891 11.75C36.5016 11.3802 36.3793 10.9714 36.322 10.5234C36.2647 10.0703 36.2621 9.61458 36.3141 9.15625L36.4391 8.17188C36.5016 7.69271 36.6188 7.21615 36.7907 6.74219C36.9678 6.26302 37.197 5.83073 37.4782 5.44531C37.7647 5.05469 38.1188 4.7474 38.5407 4.52344C38.9626 4.29427 39.4522 4.1901 40.0095 4.21094C40.5251 4.22656 40.9418 4.34635 41.2595 4.57031C41.5824 4.79427 41.8168 5.08594 41.9626 5.44531C42.1136 5.79948 42.2048 6.19531 42.236 6.63281C42.2673 7.07031 42.2543 7.50521 42.197 7.9375L42.1032 8.66406H36.8766L37.0251 7.85156L41.3532 7.84375L41.3923 7.625C41.4391 7.24479 41.4365 6.85677 41.3845 6.46094C41.3324 6.0651 41.197 5.73177 40.9782 5.46094C40.7647 5.1901 40.4235 5.04167 39.9548 5.01562C39.5069 5 39.124 5.08333 38.8063 5.26562C38.4886 5.44792 38.2282 5.69531 38.0251 6.00781C37.8272 6.32031 37.6683 6.66927 37.5485 7.05469C37.4339 7.4349 37.3532 7.80729 37.3063 8.17188L37.1813 9.15625C37.1501 9.48958 37.1449 9.83333 37.1657 10.1875C37.1865 10.5365 37.2569 10.8594 37.3766 11.1562C37.4964 11.4479 37.6787 11.6849 37.9235 11.8672C38.1735 12.0495 38.5043 12.1484 38.9157 12.1641C39.3324 12.1745 39.71 12.1016 40.0485 11.9453C40.3923 11.7839 40.7126 11.5599 41.0095 11.2734L41.4157 11.8594C41.197 12.1198 40.9522 12.3333 40.6813 12.5C40.4105 12.6667 40.1188 12.7891 39.8063 12.8672C39.499 12.9505 39.1787 12.9896 38.8454 12.9844ZM43.2923 12.2422C43.3027 12.0651 43.3704 11.9115 43.4954 11.7812C43.6256 11.6458 43.7845 11.5755 43.972 11.5703C44.1595 11.5651 44.3131 11.6276 44.4329 11.7578C44.5579 11.888 44.6126 12.0469 44.597 12.2344C44.5813 12.4219 44.5058 12.5781 44.3704 12.7031C44.2402 12.8281 44.0813 12.8958 43.8938 12.9062C43.7063 12.9062 43.5553 12.8438 43.4407 12.7188C43.3261 12.5885 43.2766 12.4297 43.2923 12.2422ZM44.5579 5.03906C44.5683 4.86198 44.636 4.70833 44.761 4.57812C44.8912 4.44271 45.0501 4.3724 45.2376 4.36719C45.4251 4.36198 45.5787 4.42448 45.6985 4.55469C45.8235 4.6849 45.8782 4.84375 45.8626 5.03125C45.847 5.21875 45.7714 5.375 45.636 5.5C45.5058 5.625 45.347 5.69271 45.1595 5.70312C44.972 5.70312 44.8209 5.64062 44.7063 5.51562C44.5918 5.38542 44.5423 5.22656 44.5579 5.03906ZM55.4204 1.44531L53.436 12.8203H52.5532L54.5298 1.44531H55.4204ZM58.5532 1.44531L58.4048 2.28125H51.2407L51.397 1.44531H58.5532ZM61.2579 0.820312L59.1798 12.8203H58.3126L60.3985 0.820312H61.2579ZM59.8126 8.07031L59.5079 7.875C59.5756 7.46354 59.6902 7.04167 59.8516 6.60938C60.0183 6.17188 60.2293 5.77083 60.4845 5.40625C60.7397 5.03646 61.0522 4.74219 61.422 4.52344C61.7918 4.29948 62.224 4.19271 62.7188 4.20312C63.1459 4.21354 63.4897 4.3151 63.7501 4.50781C64.0105 4.70052 64.198 4.95052 64.3126 5.25781C64.4272 5.5599 64.4923 5.89062 64.5079 6.25C64.5287 6.60938 64.5209 6.96354 64.4845 7.3125L63.5626 12.8203H62.711L63.6329 7.29688C63.6641 6.96875 63.6668 6.63021 63.6407 6.28125C63.6199 5.93229 63.5209 5.63802 63.3438 5.39844C63.1668 5.15885 62.8673 5.03125 62.4454 5.01562C62.0652 5.01042 61.724 5.10417 61.422 5.29688C61.1251 5.48958 60.8673 5.74479 60.6485 6.0625C60.435 6.375 60.2579 6.70833 60.1173 7.0625C59.9766 7.41667 59.8751 7.7526 59.8126 8.07031ZM68.7204 12.9844C68.1787 12.974 67.7308 12.8568 67.3766 12.6328C67.0277 12.4089 66.7569 12.1146 66.5641 11.75C66.3766 11.3802 66.2543 10.9714 66.197 10.5234C66.1397 10.0703 66.1371 9.61458 66.1891 9.15625L66.3141 8.17188C66.3766 7.69271 66.4938 7.21615 66.6657 6.74219C66.8428 6.26302 67.072 5.83073 67.3532 5.44531C67.6397 5.05469 67.9938 4.7474 68.4157 4.52344C68.8376 4.29427 69.3272 4.1901 69.8845 4.21094C70.4001 4.22656 70.8168 4.34635 71.1345 4.57031C71.4574 4.79427 71.6918 5.08594 71.8376 5.44531C71.9886 5.79948 72.0798 6.19531 72.111 6.63281C72.1423 7.07031 72.1293 7.50521 72.072 7.9375L71.9782 8.66406H66.7516L66.9001 7.85156L71.2282 7.84375L71.2673 7.625C71.3141 7.24479 71.3115 6.85677 71.2595 6.46094C71.2074 6.0651 71.072 5.73177 70.8532 5.46094C70.6397 5.1901 70.2985 5.04167 69.8298 5.01562C69.3819 5 68.999 5.08333 68.6813 5.26562C68.3636 5.44792 68.1032 5.69531 67.9001 6.00781C67.7022 6.32031 67.5433 6.66927 67.4235 7.05469C67.3089 7.4349 67.2282 7.80729 67.1813 8.17188L67.0563 9.15625C67.0251 9.48958 67.0199 9.83333 67.0407 10.1875C67.0615 10.5365 67.1319 10.8594 67.2516 11.1562C67.3714 11.4479 67.5537 11.6849 67.7985 11.8672C68.0485 12.0495 68.3793 12.1484 68.7907 12.1641C69.2074 12.1745 69.585 12.1016 69.9235 11.9453C70.2673 11.7839 70.5876 11.5599 70.8845 11.2734L71.2907 11.8594C71.072 12.1198 70.8272 12.3333 70.5563 12.5C70.2855 12.6667 69.9938 12.7891 69.6813 12.8672C69.374 12.9505 69.0537 12.9896 68.7204 12.9844ZM82.0673 2.17969L77.0595 12.8203H76.0985L81.5907 1.44531H82.247L82.0673 2.17969ZM83.0907 12.8203L81.7313 2.125L81.8095 1.44531H82.411L83.9423 12.8203H83.0907ZM83.2782 8.80469L83.122 9.64062H78.1298L78.2782 8.80469H83.2782ZM87.6548 5.75781L86.436 12.8203H85.5688L87.0376 4.36719H87.8813L87.6548 5.75781ZM90.272 4.30469L90.147 5.16406C90.0532 5.14844 89.9621 5.13542 89.8735 5.125C89.7902 5.10938 89.7069 5.10156 89.6235 5.10156C89.2277 5.09115 88.8865 5.17448 88.6001 5.35156C88.3188 5.52865 88.0819 5.76302 87.8891 6.05469C87.7016 6.34115 87.5454 6.65625 87.4204 7C87.2954 7.33854 87.1912 7.66667 87.1079 7.98438L86.7954 8.11719C86.8579 7.72135 86.949 7.29427 87.0688 6.83594C87.1938 6.3776 87.3657 5.94531 87.5845 5.53906C87.8084 5.1276 88.0923 4.79688 88.436 4.54688C88.785 4.29167 89.2147 4.17448 89.7251 4.19531C89.8188 4.19531 89.91 4.20573 89.9985 4.22656C90.0923 4.2474 90.1834 4.27344 90.272 4.30469ZM93.0001 12.1719C93.422 12.1927 93.7787 12.1172 94.0704 11.9453C94.3621 11.7734 94.5964 11.5365 94.7735 11.2344C94.9558 10.9323 95.0938 10.5911 95.1876 10.2109L95.9766 10.2031C95.8933 10.724 95.7188 11.2005 95.4532 11.6328C95.1876 12.0599 94.8438 12.3984 94.422 12.6484C94.0001 12.8932 93.5079 13.0078 92.9454 12.9922C92.3933 12.9766 91.948 12.8542 91.6095 12.625C91.2709 12.3906 91.0157 12.0833 90.8438 11.7031C90.6772 11.3229 90.5756 10.9062 90.5391 10.4531C90.5027 9.99479 90.5105 9.53646 90.5626 9.07812L90.6954 8.11719C90.7631 7.61198 90.8777 7.125 91.0391 6.65625C91.2006 6.18229 91.422 5.75781 91.7032 5.38281C91.9845 5.00781 92.3334 4.71354 92.7501 4.5C93.1668 4.28646 93.6615 4.1901 94.2345 4.21094C94.8126 4.22656 95.2709 4.3776 95.6095 4.66406C95.948 4.94531 96.1876 5.3151 96.3282 5.77344C96.4688 6.22656 96.5235 6.71094 96.4923 7.22656L95.6641 7.21875C95.6902 6.85938 95.6641 6.51562 95.586 6.1875C95.5079 5.85938 95.3569 5.58854 95.1329 5.375C94.9141 5.15625 94.5964 5.03906 94.1798 5.02344C93.7319 5.0026 93.3516 5.08073 93.0391 5.25781C92.7266 5.42969 92.4688 5.66927 92.2657 5.97656C92.0678 6.27865 91.9115 6.61719 91.797 6.99219C91.6824 7.36198 91.6016 7.73698 91.5548 8.11719L91.4298 9.07812C91.3881 9.41146 91.3673 9.75781 91.3673 10.1172C91.3725 10.4714 91.422 10.8021 91.5157 11.1094C91.6095 11.4167 91.7735 11.6693 92.0079 11.8672C92.2475 12.0599 92.5782 12.1615 93.0001 12.1719ZM100.306 0.820312L100.166 1.71094C100.108 2.03906 100.02 2.35677 99.9001 2.66406C99.7803 2.96615 99.6293 3.25 99.447 3.51562C99.2699 3.78125 99.0589 4.02604 98.8141 4.25L98.3454 3.82031C98.5798 3.5026 98.7777 3.17448 98.9391 2.83594C99.1058 2.4974 99.223 2.13281 99.2907 1.74219L99.4548 0.820312H100.306ZM103.808 10.6797C103.85 10.3724 103.79 10.112 103.628 9.89844C103.472 9.67969 103.271 9.49219 103.027 9.33594C102.782 9.17969 102.545 9.04167 102.316 8.92188C102.061 8.78125 101.811 8.64062 101.566 8.5C101.326 8.35417 101.11 8.1901 100.917 8.00781C100.73 7.82552 100.579 7.61458 100.464 7.375C100.355 7.13021 100.311 6.84635 100.331 6.52344C100.352 6.16927 100.441 5.84896 100.597 5.5625C100.758 5.27083 100.962 5.02344 101.206 4.82031C101.456 4.61719 101.738 4.46354 102.05 4.35938C102.368 4.25521 102.701 4.20573 103.05 4.21094C103.54 4.22135 103.959 4.33073 104.308 4.53906C104.657 4.7474 104.917 5.03906 105.089 5.41406C105.266 5.78385 105.337 6.20312 105.3 6.67188L104.456 6.67969C104.472 6.36719 104.425 6.08854 104.316 5.84375C104.212 5.59375 104.047 5.39844 103.824 5.25781C103.6 5.11198 103.326 5.03646 103.003 5.03125C102.701 5.02604 102.417 5.08073 102.152 5.19531C101.891 5.30469 101.672 5.47135 101.495 5.69531C101.324 5.91406 101.217 6.17708 101.175 6.48438C101.149 6.70833 101.178 6.90365 101.261 7.07031C101.344 7.23698 101.459 7.38281 101.605 7.50781C101.751 7.63281 101.912 7.7474 102.089 7.85156C102.271 7.95052 102.446 8.04167 102.613 8.125C102.962 8.3125 103.297 8.51302 103.62 8.72656C103.943 8.9349 104.204 9.1901 104.402 9.49219C104.6 9.78906 104.686 10.1641 104.659 10.6172C104.633 11.0026 104.54 11.3438 104.378 11.6406C104.217 11.9323 104.006 12.1797 103.745 12.3828C103.49 12.5859 103.196 12.737 102.863 12.8359C102.529 12.9349 102.183 12.9818 101.824 12.9766C101.334 12.9661 100.899 12.8594 100.519 12.6562C100.144 12.4479 99.8548 12.1641 99.6516 11.8047C99.4485 11.4401 99.3678 11.0052 99.4095 10.5L100.269 10.5156C100.258 10.8594 100.311 11.1536 100.425 11.3984C100.545 11.6432 100.727 11.8307 100.972 11.9609C101.217 12.0911 101.514 12.1562 101.863 12.1562C102.17 12.1562 102.464 12.1042 102.745 12C103.032 11.8906 103.271 11.7266 103.464 11.5078C103.657 11.2839 103.771 11.0078 103.808 10.6797ZM115.295 2.17969L110.288 12.8203H109.327L114.819 1.44531H115.475L115.295 2.17969ZM116.319 12.8203L114.959 2.125L115.038 1.44531H115.639L117.17 12.8203H116.319ZM116.506 8.80469L116.35 9.64062H111.358L111.506 8.80469H116.506ZM123.438 10.8359L124.555 4.36719H125.406L123.938 12.8203H123.117L123.438 10.8359ZM123.867 9.29688L124.258 9.28125C124.185 9.72917 124.078 10.1771 123.938 10.625C123.797 11.0729 123.604 11.4792 123.359 11.8438C123.115 12.2031 122.802 12.4896 122.422 12.7031C122.047 12.9115 121.591 13.0052 121.055 12.9844C120.617 12.9792 120.268 12.8776 120.008 12.6797C119.747 12.4766 119.555 12.2161 119.43 11.8984C119.305 11.5807 119.232 11.237 119.211 10.8672C119.19 10.4922 119.198 10.1302 119.234 9.78125L120.141 4.36719H121.008L120.102 9.80469C120.081 10.0339 120.07 10.2812 120.07 10.5469C120.07 10.8125 120.104 11.0651 120.172 11.3047C120.245 11.5391 120.362 11.7344 120.524 11.8906C120.69 12.0469 120.922 12.1328 121.219 12.1484C121.787 12.1693 122.247 12.0391 122.602 11.7578C122.961 11.4766 123.24 11.1146 123.438 10.6719C123.636 10.2292 123.779 9.77083 123.867 9.29688ZM130.478 4.36719L130.338 5.14844H126.814L126.955 4.36719H130.478ZM128.588 2.20312H129.455L128.009 10.7734C127.994 10.9453 127.983 11.1354 127.978 11.3438C127.978 11.5469 128.02 11.724 128.103 11.875C128.192 12.026 128.348 12.1042 128.572 12.1094C128.676 12.1146 128.778 12.112 128.877 12.1016C128.981 12.0859 129.085 12.0703 129.189 12.0547L129.142 12.8516C129.007 12.888 128.871 12.9167 128.736 12.9375C128.606 12.9583 128.476 12.9661 128.345 12.9609C127.95 12.9557 127.661 12.8359 127.478 12.6016C127.301 12.362 127.194 12.0729 127.158 11.7344C127.121 11.3906 127.119 11.0625 127.15 10.75L128.588 2.20312ZM133.402 4.36719L131.933 12.8203H131.081L132.55 4.36719H133.402ZM132.839 1.9375C132.855 1.74479 132.915 1.59896 133.019 1.5C133.128 1.39583 133.269 1.32292 133.441 1.28125C133.613 1.3125 133.745 1.38021 133.839 1.48438C133.938 1.58333 133.982 1.73177 133.972 1.92969C133.951 2.11719 133.889 2.26042 133.784 2.35938C133.68 2.45833 133.542 2.52604 133.37 2.5625C133.199 2.53125 133.063 2.46615 132.964 2.36719C132.87 2.26823 132.829 2.125 132.839 1.9375ZM138.895 10.6797C138.937 10.3724 138.877 10.112 138.716 9.89844C138.559 9.67969 138.359 9.49219 138.114 9.33594C137.869 9.17969 137.632 9.04167 137.403 8.92188C137.148 8.78125 136.898 8.64062 136.653 8.5C136.414 8.35417 136.197 8.1901 136.005 8.00781C135.817 7.82552 135.666 7.61458 135.552 7.375C135.442 7.13021 135.398 6.84635 135.419 6.52344C135.44 6.16927 135.528 5.84896 135.684 5.5625C135.846 5.27083 136.049 5.02344 136.294 4.82031C136.544 4.61719 136.825 4.46354 137.138 4.35938C137.455 4.25521 137.789 4.20573 138.138 4.21094C138.627 4.22135 139.046 4.33073 139.395 4.53906C139.744 4.7474 140.005 5.03906 140.177 5.41406C140.354 5.78385 140.424 6.20312 140.388 6.67188L139.544 6.67969C139.559 6.36719 139.513 6.08854 139.403 5.84375C139.299 5.59375 139.135 5.39844 138.911 5.25781C138.687 5.11198 138.414 5.03646 138.091 5.03125C137.789 5.02604 137.505 5.08073 137.239 5.19531C136.979 5.30469 136.76 5.47135 136.583 5.69531C136.411 5.91406 136.304 6.17708 136.263 6.48438C136.237 6.70833 136.265 6.90365 136.349 7.07031C136.432 7.23698 136.546 7.38281 136.692 7.50781C136.838 7.63281 137 7.7474 137.177 7.85156C137.359 7.95052 137.533 8.04167 137.7 8.125C138.049 8.3125 138.385 8.51302 138.708 8.72656C139.031 8.9349 139.291 9.1901 139.489 9.49219C139.687 9.78906 139.773 10.1641 139.747 10.6172C139.721 11.0026 139.627 11.3438 139.466 11.6406C139.304 11.9323 139.093 12.1797 138.833 12.3828C138.578 12.5859 138.283 12.737 137.95 12.8359C137.617 12.9349 137.27 12.9818 136.911 12.9766C136.421 12.9661 135.987 12.8594 135.606 12.6562C135.231 12.4479 134.942 12.1641 134.739 11.8047C134.536 11.4401 134.455 11.0052 134.497 10.5L135.356 10.5156C135.346 10.8594 135.398 11.1536 135.513 11.3984C135.632 11.6432 135.815 11.8307 136.059 11.9609C136.304 12.0911 136.601 12.1562 136.95 12.1562C137.257 12.1562 137.552 12.1042 137.833 12C138.119 11.8906 138.359 11.7266 138.552 11.5078C138.744 11.2839 138.859 11.0078 138.895 10.6797ZM143.491 6.14844L142.342 12.8203H141.467L142.936 4.36719H143.772L143.491 6.14844ZM142.991 8.07031L142.67 7.875C142.743 7.45312 142.858 7.02604 143.014 6.59375C143.176 6.15625 143.381 5.75521 143.631 5.39062C143.887 5.02083 144.196 4.72917 144.561 4.51562C144.931 4.29688 145.366 4.19271 145.866 4.20312C146.282 4.21354 146.618 4.3099 146.874 4.49219C147.134 4.66927 147.327 4.90365 147.452 5.19531C147.582 5.48698 147.66 5.80729 147.686 6.15625C147.717 6.50521 147.715 6.85156 147.678 7.19531L146.733 12.8203H145.889L146.811 7.21875C146.847 6.875 146.845 6.53646 146.803 6.20312C146.762 5.86458 146.644 5.58333 146.452 5.35938C146.259 5.13542 145.957 5.02344 145.545 5.02344C145.144 5.00781 144.798 5.09635 144.506 5.28906C144.22 5.48177 143.975 5.73438 143.772 6.04688C143.574 6.35938 143.413 6.69531 143.288 7.05469C143.163 7.40885 143.064 7.7474 142.991 8.07031ZM147.694 7.33594L147.124 7.36719C147.196 6.97656 147.316 6.59115 147.483 6.21094C147.65 5.82552 147.86 5.48177 148.116 5.17969C148.376 4.8724 148.681 4.63021 149.03 4.45312C149.384 4.27604 149.785 4.19271 150.233 4.20312C150.665 4.21354 151.012 4.3125 151.272 4.5C151.538 4.6875 151.735 4.93229 151.866 5.23438C151.996 5.53125 152.074 5.86198 152.1 6.22656C152.126 6.58594 152.121 6.94531 152.084 7.30469L151.163 12.8203H150.288L151.209 7.28906C151.246 6.95052 151.246 6.60938 151.209 6.26562C151.178 5.91667 151.069 5.625 150.881 5.39062C150.699 5.15104 150.397 5.02604 149.975 5.01562C149.657 5.01562 149.368 5.08333 149.108 5.21875C148.853 5.35417 148.629 5.53385 148.436 5.75781C148.249 5.97656 148.092 6.22396 147.967 6.5C147.842 6.77604 147.751 7.05469 147.694 7.33594ZM166.338 1.44531L164.361 12.8203H163.494L159.978 3.10938L158.291 12.8203H157.392L159.369 1.44531H160.236L163.767 11.1562L165.447 1.44531H166.338ZM167.316 9.03125L167.417 8.16406C167.485 7.67448 167.605 7.19531 167.777 6.72656C167.949 6.2526 168.18 5.82031 168.472 5.42969C168.764 5.03906 169.118 4.73438 169.534 4.51562C169.956 4.29167 170.446 4.1875 171.003 4.20312C171.545 4.21875 171.985 4.34896 172.324 4.59375C172.662 4.83333 172.917 5.14844 173.089 5.53906C173.266 5.92969 173.378 6.35156 173.425 6.80469C173.477 7.25781 173.477 7.70833 173.425 8.15625L173.316 9.03906C173.248 9.51823 173.128 9.9974 172.956 10.4766C172.784 10.9505 172.553 11.3802 172.261 11.7656C171.969 12.151 171.613 12.4557 171.191 12.6797C170.774 12.9036 170.282 13.0078 169.714 12.9922C169.183 12.9766 168.748 12.8464 168.409 12.6016C168.071 12.3516 167.813 12.0339 167.636 11.6484C167.459 11.2578 167.347 10.8359 167.3 10.3828C167.253 9.92969 167.258 9.47917 167.316 9.03125ZM168.284 8.15625L168.175 9.05469C168.144 9.36198 168.133 9.69531 168.144 10.0547C168.159 10.4089 168.219 10.7448 168.324 11.0625C168.428 11.3802 168.594 11.6406 168.824 11.8438C169.058 12.0469 169.376 12.1562 169.777 12.1719C170.219 12.1927 170.6 12.112 170.917 11.9297C171.235 11.7422 171.498 11.4922 171.706 11.1797C171.915 10.8672 172.079 10.5234 172.199 10.1484C172.324 9.77344 172.409 9.40365 172.456 9.03906L172.574 8.14844C172.61 7.83594 172.618 7.50521 172.597 7.15625C172.581 6.80208 172.521 6.46615 172.417 6.14844C172.313 5.82552 172.141 5.5599 171.902 5.35156C171.667 5.14323 171.35 5.03125 170.949 5.01562C170.521 5 170.152 5.08594 169.839 5.27344C169.527 5.46094 169.264 5.71354 169.05 6.03125C168.837 6.34896 168.667 6.69271 168.542 7.0625C168.417 7.42708 168.331 7.79167 168.284 8.15625ZM176.911 10.8594L179.692 4.375L180.356 4.36719L179.739 6.125L176.841 12.8203H176.224L176.911 10.8594ZM176.419 4.36719L176.778 10.8672L176.708 12.8203H176.114L175.583 4.36719H176.419ZM181.184 10.8203L183.731 4.36719H184.63L181.153 12.8203H180.52L181.184 10.8203ZM180.434 4.36719L180.981 10.8516L181.013 12.8203H180.434L179.809 6.03906L179.833 4.36719H180.434ZM192.047 7.39844L191.906 8.21094H188.828L188.977 7.39844H192.047ZM201.62 1.44531L199.636 12.8203H198.753L200.73 1.44531H201.62ZM204.753 1.44531L204.605 2.28125H197.441L197.597 1.44531H204.753ZM207.458 0.820312L205.38 12.8203H204.513L206.599 0.820312H207.458ZM206.013 8.07031L205.708 7.875C205.776 7.46354 205.89 7.04167 206.052 6.60938C206.218 6.17188 206.429 5.77083 206.684 5.40625C206.94 5.03646 207.252 4.74219 207.622 4.52344C207.992 4.29948 208.424 4.19271 208.919 4.20312C209.346 4.21354 209.69 4.3151 209.95 4.50781C210.211 4.70052 210.398 4.95052 210.513 5.25781C210.627 5.5599 210.692 5.89062 210.708 6.25C210.729 6.60938 210.721 6.96354 210.684 7.3125L209.763 12.8203H208.911L209.833 7.29688C209.864 6.96875 209.867 6.63021 209.841 6.28125C209.82 5.93229 209.721 5.63802 209.544 5.39844C209.367 5.15885 209.067 5.03125 208.645 5.01562C208.265 5.01042 207.924 5.10417 207.622 5.29688C207.325 5.48958 207.067 5.74479 206.849 6.0625C206.635 6.375 206.458 6.70833 206.317 7.0625C206.177 7.41667 206.075 7.7526 206.013 8.07031ZM214.92 12.9844C214.379 12.974 213.931 12.8568 213.577 12.6328C213.228 12.4089 212.957 12.1146 212.764 11.75C212.577 11.3802 212.454 10.9714 212.397 10.5234C212.34 10.0703 212.337 9.61458 212.389 9.15625L212.514 8.17188C212.577 7.69271 212.694 7.21615 212.866 6.74219C213.043 6.26302 213.272 5.83073 213.553 5.44531C213.84 5.05469 214.194 4.7474 214.616 4.52344C215.038 4.29427 215.527 4.1901 216.084 4.21094C216.6 4.22656 217.017 4.34635 217.334 4.57031C217.657 4.79427 217.892 5.08594 218.038 5.44531C218.189 5.79948 218.28 6.19531 218.311 6.63281C218.342 7.07031 218.329 7.50521 218.272 7.9375L218.178 8.66406H212.952L213.1 7.85156L217.428 7.84375L217.467 7.625C217.514 7.24479 217.512 6.85677 217.459 6.46094C217.407 6.0651 217.272 5.73177 217.053 5.46094C216.84 5.1901 216.499 5.04167 216.03 5.01562C215.582 5 215.199 5.08333 214.881 5.26562C214.564 5.44792 214.303 5.69531 214.1 6.00781C213.902 6.32031 213.743 6.66927 213.624 7.05469C213.509 7.4349 213.428 7.80729 213.381 8.17188L213.256 9.15625C213.225 9.48958 213.22 9.83333 213.241 10.1875C213.262 10.5365 213.332 10.8594 213.452 11.1562C213.571 11.4479 213.754 11.6849 213.999 11.8672C214.249 12.0495 214.579 12.1484 214.991 12.1641C215.407 12.1745 215.785 12.1016 216.124 11.9453C216.467 11.7839 216.788 11.5599 217.084 11.2734L217.491 11.8594C217.272 12.1198 217.027 12.3333 216.756 12.5C216.485 12.6667 216.194 12.7891 215.881 12.8672C215.574 12.9505 215.254 12.9896 214.92 12.9844ZM228.869 11.9844L228.713 12.8203H223.924L224.072 11.9844H228.869ZM226.158 1.44531L224.181 12.8203H223.283L225.259 1.44531H226.158ZM233.245 12.9844C232.704 12.974 232.256 12.8568 231.902 12.6328C231.553 12.4089 231.282 12.1146 231.089 11.75C230.902 11.3802 230.779 10.9714 230.722 10.5234C230.665 10.0703 230.662 9.61458 230.714 9.15625L230.839 8.17188C230.902 7.69271 231.019 7.21615 231.191 6.74219C231.368 6.26302 231.597 5.83073 231.878 5.44531C232.165 5.05469 232.519 4.7474 232.941 4.52344C233.363 4.29427 233.852 4.1901 234.409 4.21094C234.925 4.22656 235.342 4.34635 235.659 4.57031C235.982 4.79427 236.217 5.08594 236.363 5.44531C236.514 5.79948 236.605 6.19531 236.636 6.63281C236.667 7.07031 236.654 7.50521 236.597 7.9375L236.503 8.66406H231.277L231.425 7.85156L235.753 7.84375L235.792 7.625C235.839 7.24479 235.837 6.85677 235.784 6.46094C235.732 6.0651 235.597 5.73177 235.378 5.46094C235.165 5.1901 234.824 5.04167 234.355 5.01562C233.907 5 233.524 5.08333 233.206 5.26562C232.889 5.44792 232.628 5.69531 232.425 6.00781C232.227 6.32031 232.068 6.66927 231.949 7.05469C231.834 7.4349 231.753 7.80729 231.706 8.17188L231.581 9.15625C231.55 9.48958 231.545 9.83333 231.566 10.1875C231.587 10.5365 231.657 10.8594 231.777 11.1562C231.896 11.4479 232.079 11.6849 232.324 11.8672C232.574 12.0495 232.904 12.1484 233.316 12.1641C233.732 12.1745 234.11 12.1016 234.449 11.9453C234.792 11.7839 235.113 11.5599 235.409 11.2734L235.816 11.8594C235.597 12.1198 235.352 12.3333 235.081 12.5C234.81 12.6667 234.519 12.7891 234.206 12.8672C233.899 12.9505 233.579 12.9896 233.245 12.9844ZM242.161 11.3047L242.903 6.67969C242.934 6.34115 242.906 6.04688 242.817 5.79688C242.734 5.54688 242.583 5.35677 242.364 5.22656C242.145 5.09115 241.856 5.02083 241.497 5.01562C241.148 5.00521 240.833 5.07031 240.552 5.21094C240.27 5.35156 240.036 5.54948 239.849 5.80469C239.666 6.05469 239.541 6.35156 239.474 6.69531H238.63C238.677 6.32552 238.789 5.98438 238.966 5.67188C239.143 5.35938 239.364 5.09375 239.63 4.875C239.901 4.65625 240.203 4.48698 240.536 4.36719C240.869 4.2474 241.224 4.19271 241.599 4.20312C242.109 4.20833 242.533 4.3151 242.872 4.52344C243.211 4.73177 243.455 5.02344 243.606 5.39844C243.757 5.77344 243.809 6.21354 243.763 6.71875L243.059 11.0469C243.013 11.3333 242.989 11.6146 242.989 11.8906C242.989 12.1615 242.992 12.4375 242.997 12.7188L242.981 12.8203H242.106C242.08 12.5651 242.072 12.3125 242.083 12.0625C242.099 11.8125 242.125 11.5599 242.161 11.3047ZM242.95 7.89062L242.833 8.625L241.411 8.60938C241.088 8.61458 240.77 8.65365 240.458 8.72656C240.151 8.79427 239.867 8.90625 239.606 9.0625C239.351 9.21875 239.14 9.42448 238.974 9.67969C238.812 9.92969 238.713 10.2292 238.677 10.5781C238.64 10.875 238.658 11.1406 238.731 11.375C238.809 11.6094 238.942 11.7969 239.13 11.9375C239.317 12.0729 239.567 12.1432 239.88 12.1484C240.281 12.1536 240.648 12.0755 240.981 11.9141C241.315 11.7526 241.606 11.5312 241.856 11.25C242.106 10.9688 242.304 10.6536 242.45 10.3047L242.614 10.8281C242.505 11.1354 242.359 11.4219 242.177 11.6875C241.994 11.9479 241.776 12.1771 241.52 12.375C241.27 12.5729 240.994 12.7266 240.692 12.8359C240.395 12.9453 240.078 13 239.739 13C239.281 13 238.901 12.8958 238.599 12.6875C238.302 12.474 238.083 12.1927 237.942 11.8438C237.807 11.4896 237.755 11.0938 237.786 10.6562C237.822 10.1823 237.942 9.77344 238.145 9.42969C238.349 9.08073 238.614 8.79167 238.942 8.5625C239.27 8.33333 239.638 8.16406 240.044 8.05469C240.45 7.9401 240.872 7.88021 241.309 7.875L242.95 7.89062ZM247.264 5.75781L246.045 12.8203H245.178L246.647 4.36719H247.491L247.264 5.75781ZM249.881 4.30469L249.756 5.16406C249.663 5.14844 249.571 5.13542 249.483 5.125C249.4 5.10938 249.316 5.10156 249.233 5.10156C248.837 5.09115 248.496 5.17448 248.209 5.35156C247.928 5.52865 247.691 5.76302 247.499 6.05469C247.311 6.34115 247.155 6.65625 247.03 7C246.905 7.33854 246.801 7.66667 246.717 7.98438L246.405 8.11719C246.467 7.72135 246.558 7.29427 246.678 6.83594C246.803 6.3776 246.975 5.94531 247.194 5.53906C247.418 5.1276 247.702 4.79688 248.045 4.54688C248.394 4.29167 248.824 4.17448 249.334 4.19531C249.428 4.19531 249.519 4.20573 249.608 4.22656C249.702 4.2474 249.793 4.27344 249.881 4.30469ZM252.039 6.17188L250.899 12.8203H250.031L251.5 4.36719H252.32L252.039 6.17188ZM251.531 8.07031L251.227 7.875C251.294 7.46354 251.409 7.04167 251.57 6.60938C251.737 6.17188 251.948 5.77083 252.203 5.40625C252.458 5.03646 252.771 4.74219 253.141 4.52344C253.511 4.29948 253.943 4.19271 254.438 4.20312C254.865 4.21354 255.208 4.3151 255.469 4.50781C255.729 4.70052 255.917 4.95052 256.031 5.25781C256.146 5.5599 256.211 5.89062 256.227 6.25C256.247 6.60938 256.24 6.96354 256.203 7.3125L255.281 12.8203H254.43L255.352 7.29688C255.383 6.96875 255.386 6.63021 255.359 6.28125C255.339 5.93229 255.24 5.63802 255.063 5.39844C254.886 5.15885 254.586 5.03125 254.164 5.01562C253.784 5.01042 253.443 5.10417 253.141 5.29688C252.844 5.48958 252.586 5.74479 252.367 6.0625C252.154 6.375 251.977 6.70833 251.836 7.0625C251.695 7.41667 251.594 7.7526 251.531 8.07031ZM260.08 4.36719L258.611 12.8203H257.759L259.228 4.36719H260.08ZM259.517 1.9375C259.533 1.74479 259.593 1.59896 259.697 1.5C259.806 1.39583 259.947 1.32292 260.119 1.28125C260.291 1.3125 260.424 1.38021 260.517 1.48438C260.616 1.58333 260.661 1.73177 260.65 1.92969C260.629 2.11719 260.567 2.26042 260.463 2.35938C260.358 2.45833 260.22 2.52604 260.049 2.5625C259.877 2.53125 259.741 2.46615 259.642 2.36719C259.549 2.26823 259.507 2.125 259.517 1.9375ZM263.105 6.17188L261.964 12.8203H261.097L262.566 4.36719H263.386L263.105 6.17188ZM262.597 8.07031L262.292 7.875C262.36 7.46354 262.475 7.04167 262.636 6.60938C262.803 6.17188 263.014 5.77083 263.269 5.40625C263.524 5.03646 263.837 4.74219 264.206 4.52344C264.576 4.29948 265.008 4.19271 265.503 4.20312C265.93 4.21354 266.274 4.3151 266.534 4.50781C266.795 4.70052 266.982 4.95052 267.097 5.25781C267.212 5.5599 267.277 5.89062 267.292 6.25C267.313 6.60938 267.305 6.96354 267.269 7.3125L266.347 12.8203H265.495L266.417 7.29688C266.449 6.96875 266.451 6.63021 266.425 6.28125C266.404 5.93229 266.305 5.63802 266.128 5.39844C265.951 5.15885 265.652 5.03125 265.23 5.01562C264.85 5.01042 264.508 5.10417 264.206 5.29688C263.909 5.48958 263.652 5.74479 263.433 6.0625C263.219 6.375 263.042 6.70833 262.902 7.0625C262.761 7.41667 262.659 7.7526 262.597 8.07031ZM274.716 4.36719H275.513L274.036 13.0234C273.958 13.6276 273.791 14.1719 273.536 14.6562C273.281 15.1458 272.929 15.5286 272.481 15.8047C272.033 16.0859 271.476 16.2161 270.809 16.1953C270.518 16.1797 270.229 16.125 269.942 16.0312C269.656 15.9375 269.39 15.8021 269.145 15.625C268.901 15.4531 268.69 15.2422 268.513 14.9922L268.981 14.3906C269.2 14.6823 269.46 14.9167 269.763 15.0938C270.065 15.276 270.408 15.3724 270.794 15.3828C271.289 15.4036 271.7 15.3151 272.028 15.1172C272.362 14.9245 272.619 14.6484 272.802 14.2891C272.989 13.9297 273.114 13.5234 273.177 13.0703L274.333 6.21094L274.716 4.36719ZM269.114 8.99219L269.216 8.21875C269.283 7.74479 269.385 7.26823 269.52 6.78906C269.656 6.3099 269.849 5.8724 270.099 5.47656C270.349 5.07552 270.666 4.76042 271.052 4.53125C271.442 4.29688 271.919 4.1901 272.481 4.21094C272.903 4.22656 273.255 4.33073 273.536 4.52344C273.822 4.71094 274.052 4.96094 274.224 5.27344C274.401 5.58594 274.52 5.92969 274.583 6.30469C274.651 6.67448 274.677 7.03906 274.661 7.39844L274.27 9.92969C274.203 10.3203 274.083 10.7005 273.911 11.0703C273.744 11.4401 273.533 11.7734 273.278 12.0703C273.023 12.362 272.721 12.5938 272.372 12.7656C272.023 12.9323 271.632 13.0078 271.2 12.9922C270.669 12.9818 270.252 12.849 269.95 12.5938C269.648 12.3333 269.427 11.9974 269.286 11.5859C269.151 11.1745 269.078 10.7422 269.067 10.2891C269.057 9.83073 269.072 9.39844 269.114 8.99219ZM270.075 8.20312L269.989 9.00781C269.953 9.3099 269.929 9.64062 269.919 10C269.914 10.3594 269.947 10.7005 270.02 11.0234C270.099 11.3464 270.244 11.6146 270.458 11.8281C270.677 12.0365 270.997 12.1458 271.419 12.1562C271.809 12.1719 272.174 12.0885 272.513 11.9062C272.851 11.7188 273.138 11.4714 273.372 11.1641C273.606 10.8516 273.776 10.513 273.88 10.1484L274.349 7.23438C274.359 6.95833 274.328 6.69531 274.255 6.44531C274.182 6.1901 274.07 5.95833 273.919 5.75C273.773 5.54167 273.588 5.3724 273.364 5.24219C273.145 5.11198 272.893 5.04427 272.606 5.03906C272.158 5.01302 271.783 5.09635 271.481 5.28906C271.179 5.47656 270.934 5.72917 270.747 6.04688C270.559 6.35938 270.411 6.70573 270.302 7.08594C270.197 7.46094 270.122 7.83333 270.075 8.20312ZM286 9.94531C286.042 9.60677 286.018 9.30729 285.93 9.04688C285.846 8.78125 285.708 8.55469 285.516 8.36719C285.328 8.17448 285.104 8.00781 284.844 7.86719C284.589 7.72656 284.313 7.59896 284.016 7.48438C283.656 7.32812 283.318 7.15885 283 6.97656C282.682 6.78906 282.404 6.57031 282.164 6.32031C281.93 6.07031 281.753 5.78125 281.633 5.45312C281.518 5.125 281.482 4.74219 281.524 4.30469C281.555 3.84115 281.672 3.42188 281.875 3.04688C282.078 2.67188 282.341 2.35156 282.664 2.08594C282.987 1.8151 283.349 1.61198 283.75 1.47656C284.156 1.34115 284.586 1.27865 285.039 1.28906C285.675 1.30469 286.203 1.47135 286.625 1.78906C287.052 2.10677 287.359 2.52083 287.547 3.03125C287.734 3.53646 287.8 4.08594 287.742 4.67969L286.867 4.6875C286.909 4.25 286.872 3.83854 286.758 3.45312C286.649 3.06771 286.448 2.7526 286.156 2.50781C285.87 2.26302 285.479 2.13542 284.984 2.125C284.542 2.11458 284.136 2.19792 283.766 2.375C283.396 2.54688 283.089 2.79688 282.844 3.125C282.604 3.44792 282.458 3.83073 282.406 4.27344C282.375 4.60156 282.404 4.88802 282.492 5.13281C282.586 5.3776 282.724 5.59115 282.906 5.77344C283.094 5.95573 283.313 6.11719 283.563 6.25781C283.813 6.39323 284.073 6.51302 284.344 6.61719C284.734 6.76823 285.091 6.94271 285.414 7.14062C285.742 7.33333 286.024 7.5625 286.258 7.82812C286.492 8.08854 286.667 8.39323 286.781 8.74219C286.896 9.08594 286.932 9.48177 286.891 9.92969C286.844 10.4141 286.719 10.8464 286.516 11.2266C286.313 11.6068 286.044 11.9297 285.711 12.1953C285.383 12.4557 285.011 12.6562 284.594 12.7969C284.177 12.9323 283.734 12.9948 283.266 12.9844C282.771 12.9688 282.331 12.875 281.945 12.7031C281.56 12.5312 281.237 12.2891 280.977 11.9766C280.716 11.6641 280.526 11.3047 280.406 10.8984C280.292 10.487 280.258 10.0417 280.305 9.5625H281.188C281.156 9.92708 281.177 10.2656 281.25 10.5781C281.323 10.8854 281.448 11.1562 281.625 11.3906C281.807 11.625 282.039 11.8073 282.32 11.9375C282.607 12.0677 282.94 12.138 283.32 12.1484C283.774 12.1589 284.193 12.0755 284.578 11.8984C284.969 11.7214 285.289 11.4688 285.539 11.1406C285.794 10.8073 285.948 10.4089 286 9.94531ZM292.478 4.36719L292.338 5.14844H288.814L288.955 4.36719H292.478ZM290.588 2.20312H291.455L290.009 10.7734C289.994 10.9453 289.983 11.1354 289.978 11.3438C289.978 11.5469 290.02 11.724 290.103 11.875C290.192 12.026 290.348 12.1042 290.572 12.1094C290.676 12.1146 290.778 12.112 290.877 12.1016C290.981 12.0859 291.085 12.0703 291.189 12.0547L291.142 12.8516C291.007 12.888 290.871 12.9167 290.736 12.9375C290.606 12.9583 290.476 12.9661 290.345 12.9609C289.95 12.9557 289.661 12.8359 289.478 12.6016C289.301 12.362 289.194 12.0729 289.158 11.7344C289.121 11.3906 289.119 11.0625 289.15 10.75L290.588 2.20312ZM295.214 11.8438L298.581 4.36719H299.527L294.956 14.1875C294.852 14.4323 294.73 14.6745 294.589 14.9141C294.454 15.1589 294.297 15.3828 294.12 15.5859C293.949 15.7943 293.743 15.9583 293.503 16.0781C293.269 16.2031 293.001 16.263 292.699 16.2578C292.589 16.2578 292.48 16.2474 292.37 16.2266C292.256 16.2057 292.141 16.1797 292.027 16.1484L292.128 15.3516C292.191 15.3672 292.256 15.3802 292.324 15.3906C292.386 15.4062 292.451 15.4141 292.519 15.4141C292.831 15.4297 293.1 15.3594 293.324 15.2031C293.547 15.0521 293.735 14.8568 293.886 14.6172C294.042 14.3776 294.178 14.1276 294.292 13.8672L295.214 11.8438ZM294.597 4.36719L295.456 11.6641L295.519 12.6328L294.847 13.0078L293.699 4.36719H294.597ZM302.677 0.820312L300.583 12.8203H299.731L301.817 0.820312H302.677ZM305.858 12.9844C305.316 12.974 304.868 12.8568 304.514 12.6328C304.165 12.4089 303.894 12.1146 303.702 11.75C303.514 11.3802 303.392 10.9714 303.334 10.5234C303.277 10.0703 303.275 9.61458 303.327 9.15625L303.452 8.17188C303.514 7.69271 303.631 7.21615 303.803 6.74219C303.98 6.26302 304.209 5.83073 304.491 5.44531C304.777 5.05469 305.131 4.7474 305.553 4.52344C305.975 4.29427 306.465 4.1901 307.022 4.21094C307.538 4.22656 307.954 4.34635 308.272 4.57031C308.595 4.79427 308.829 5.08594 308.975 5.44531C309.126 5.79948 309.217 6.19531 309.249 6.63281C309.28 7.07031 309.267 7.50521 309.209 7.9375L309.116 8.66406H303.889L304.038 7.85156L308.366 7.84375L308.405 7.625C308.452 7.24479 308.449 6.85677 308.397 6.46094C308.345 6.0651 308.209 5.73177 307.991 5.46094C307.777 5.1901 307.436 5.04167 306.967 5.01562C306.519 5 306.137 5.08333 305.819 5.26562C305.501 5.44792 305.241 5.69531 305.038 6.00781C304.84 6.32031 304.681 6.66927 304.561 7.05469C304.446 7.4349 304.366 7.80729 304.319 8.17188L304.194 9.15625C304.163 9.48958 304.157 9.83333 304.178 10.1875C304.199 10.5365 304.269 10.8594 304.389 11.1562C304.509 11.4479 304.691 11.6849 304.936 11.8672C305.186 12.0495 305.517 12.1484 305.928 12.1641C306.345 12.1745 306.722 12.1016 307.061 11.9453C307.405 11.7839 307.725 11.5599 308.022 11.2734L308.428 11.8594C308.209 12.1198 307.965 12.3333 307.694 12.5C307.423 12.6667 307.131 12.7891 306.819 12.8672C306.512 12.9505 306.191 12.9896 305.858 12.9844ZM314.805 10.6797C314.846 10.3724 314.787 10.112 314.625 9.89844C314.469 9.67969 314.268 9.49219 314.024 9.33594C313.779 9.17969 313.542 9.04167 313.313 8.92188C313.057 8.78125 312.807 8.64062 312.563 8.5C312.323 8.35417 312.107 8.1901 311.914 8.00781C311.727 7.82552 311.576 7.61458 311.461 7.375C311.352 7.13021 311.307 6.84635 311.328 6.52344C311.349 6.16927 311.438 5.84896 311.594 5.5625C311.755 5.27083 311.958 5.02344 312.203 4.82031C312.453 4.61719 312.734 4.46354 313.047 4.35938C313.365 4.25521 313.698 4.20573 314.047 4.21094C314.537 4.22135 314.956 4.33073 315.305 4.53906C315.654 4.7474 315.914 5.03906 316.086 5.41406C316.263 5.78385 316.333 6.20312 316.297 6.67188L315.453 6.67969C315.469 6.36719 315.422 6.08854 315.313 5.84375C315.208 5.59375 315.044 5.39844 314.82 5.25781C314.596 5.11198 314.323 5.03646 314 5.03125C313.698 5.02604 313.414 5.08073 313.149 5.19531C312.888 5.30469 312.669 5.47135 312.492 5.69531C312.32 5.91406 312.214 6.17708 312.172 6.48438C312.146 6.70833 312.175 6.90365 312.258 7.07031C312.341 7.23698 312.456 7.38281 312.602 7.50781C312.747 7.63281 312.909 7.7474 313.086 7.85156C313.268 7.95052 313.443 8.04167 313.609 8.125C313.958 8.3125 314.294 8.51302 314.617 8.72656C314.94 8.9349 315.201 9.1901 315.399 9.49219C315.596 9.78906 315.682 10.1641 315.656 10.6172C315.63 11.0026 315.537 11.3438 315.375 11.6406C315.214 11.9323 315.003 12.1797 314.742 12.3828C314.487 12.5859 314.193 12.737 313.859 12.8359C313.526 12.9349 313.18 12.9818 312.82 12.9766C312.331 12.9661 311.896 12.8594 311.516 12.6562C311.141 12.4479 310.852 12.1641 310.649 11.8047C310.445 11.4401 310.365 11.0052 310.406 10.5L311.266 10.5156C311.255 10.8594 311.307 11.1536 311.422 11.3984C311.542 11.6432 311.724 11.8307 311.969 11.9609C312.214 12.0911 312.511 12.1562 312.859 12.1562C313.167 12.1562 313.461 12.1042 313.742 12C314.029 11.8906 314.268 11.7266 314.461 11.5078C314.654 11.2839 314.768 11.0078 314.805 10.6797ZM321.503 9.03125L321.605 8.16406C321.672 7.67448 321.792 7.19531 321.964 6.72656C322.136 6.2526 322.368 5.82031 322.659 5.42969C322.951 5.03906 323.305 4.73438 323.722 4.51562C324.144 4.29167 324.633 4.1875 325.191 4.20312C325.732 4.21875 326.172 4.34896 326.511 4.59375C326.85 4.83333 327.105 5.14844 327.277 5.53906C327.454 5.92969 327.566 6.35156 327.613 6.80469C327.665 7.25781 327.665 7.70833 327.613 8.15625L327.503 9.03906C327.435 9.51823 327.316 9.9974 327.144 10.4766C326.972 10.9505 326.74 11.3802 326.449 11.7656C326.157 12.151 325.8 12.4557 325.378 12.6797C324.962 12.9036 324.469 13.0078 323.902 12.9922C323.37 12.9766 322.935 12.8464 322.597 12.6016C322.258 12.3516 322.001 12.0339 321.824 11.6484C321.646 11.2578 321.534 10.8359 321.488 10.3828C321.441 9.92969 321.446 9.47917 321.503 9.03125ZM322.472 8.15625L322.363 9.05469C322.331 9.36198 322.321 9.69531 322.331 10.0547C322.347 10.4089 322.407 10.7448 322.511 11.0625C322.615 11.3802 322.782 11.6406 323.011 11.8438C323.245 12.0469 323.563 12.1562 323.964 12.1719C324.407 12.1927 324.787 12.112 325.105 11.9297C325.422 11.7422 325.685 11.4922 325.894 11.1797C326.102 10.8672 326.266 10.5234 326.386 10.1484C326.511 9.77344 326.597 9.40365 326.644 9.03906L326.761 8.14844C326.797 7.83594 326.805 7.50521 326.784 7.15625C326.769 6.80208 326.709 6.46615 326.605 6.14844C326.501 5.82552 326.329 5.5599 326.089 5.35156C325.855 5.14323 325.537 5.03125 325.136 5.01562C324.709 5 324.339 5.08594 324.027 5.27344C323.714 5.46094 323.451 5.71354 323.238 6.03125C323.024 6.34896 322.855 6.69271 322.73 7.0625C322.605 7.42708 322.519 7.79167 322.472 8.15625ZM330.302 12.8203H329.45L331.059 3.32031C331.122 2.85677 331.247 2.41927 331.434 2.00781C331.627 1.59635 331.895 1.26302 332.239 1.00781C332.583 0.752604 333.015 0.627604 333.536 0.632812C333.687 0.638021 333.835 0.653646 333.981 0.679688C334.127 0.705729 334.273 0.742188 334.419 0.789062L334.263 1.57812C334.148 1.54167 334.033 1.51302 333.919 1.49219C333.804 1.47135 333.682 1.46094 333.552 1.46094C333.208 1.45573 332.924 1.54688 332.7 1.73438C332.476 1.91667 332.302 2.15104 332.177 2.4375C332.057 2.72396 331.974 3.01562 331.927 3.3125L330.302 12.8203ZM333.388 4.36719L333.247 5.14844H329.645L329.786 4.36719H333.388ZM343.969 9.28125L344.813 9.27344C344.682 9.98698 344.456 10.6302 344.133 11.2031C343.815 11.7708 343.386 12.2161 342.844 12.5391C342.302 12.8568 341.641 13.0052 340.859 12.9844C340.234 12.9688 339.727 12.8151 339.336 12.5234C338.945 12.2318 338.651 11.8542 338.453 11.3906C338.255 10.9271 338.136 10.4271 338.094 9.89062C338.052 9.34896 338.065 8.82292 338.133 8.3125L338.531 5.875C338.615 5.30729 338.761 4.7474 338.969 4.19531C339.177 3.63802 339.451 3.14062 339.789 2.70312C340.128 2.26042 340.542 1.90885 341.031 1.64844C341.526 1.38802 342.099 1.26562 342.75 1.28125C343.484 1.30208 344.063 1.48177 344.484 1.82031C344.906 2.15885 345.201 2.60938 345.367 3.17188C345.534 3.73438 345.604 4.34635 345.578 5.00781H344.695C344.711 4.51302 344.672 4.04688 344.578 3.60938C344.49 3.17188 344.3 2.81771 344.008 2.54688C343.716 2.27604 343.281 2.13021 342.703 2.10938C342.177 2.09896 341.721 2.20312 341.336 2.42188C340.956 2.63542 340.633 2.92708 340.367 3.29688C340.107 3.66667 339.899 4.07292 339.742 4.51562C339.591 4.95833 339.482 5.40625 339.414 5.85938L339.031 8.32031C338.979 8.70573 338.956 9.11458 338.961 9.54688C338.971 9.97396 339.037 10.3828 339.156 10.7734C339.276 11.1641 339.474 11.487 339.75 11.7422C340.031 11.9974 340.422 12.1328 340.922 12.1484C341.552 12.1745 342.068 12.0651 342.469 11.8203C342.87 11.5755 343.185 11.2318 343.414 10.7891C343.649 10.3464 343.833 9.84375 343.969 9.28125ZM349.299 0.820312L347.22 12.8203H346.353L348.439 0.820312H349.299ZM347.853 8.07031L347.549 7.875C347.616 7.46354 347.731 7.04167 347.892 6.60938C348.059 6.17188 348.27 5.77083 348.525 5.40625C348.78 5.03646 349.093 4.74219 349.463 4.52344C349.832 4.29948 350.265 4.19271 350.759 4.20312C351.187 4.21354 351.53 4.3151 351.791 4.50781C352.051 4.70052 352.239 4.95052 352.353 5.25781C352.468 5.5599 352.533 5.89062 352.549 6.25C352.569 6.60938 352.562 6.96354 352.525 7.3125L351.603 12.8203H350.752L351.674 7.29688C351.705 6.96875 351.707 6.63021 351.681 6.28125C351.661 5.93229 351.562 5.63802 351.384 5.39844C351.207 5.15885 350.908 5.03125 350.486 5.01562C350.106 5.01042 349.765 5.10417 349.463 5.29688C349.166 5.48958 348.908 5.74479 348.689 6.0625C348.476 6.375 348.299 6.70833 348.158 7.0625C348.017 7.41667 347.916 7.7526 347.853 8.07031ZM356.386 4.36719L354.917 12.8203H354.066L355.534 4.36719H356.386ZM355.824 1.9375C355.839 1.74479 355.899 1.59896 356.003 1.5C356.113 1.39583 356.253 1.32292 356.425 1.28125C356.597 1.3125 356.73 1.38021 356.824 1.48438C356.922 1.58333 356.967 1.73177 356.956 1.92969C356.935 2.11719 356.873 2.26042 356.769 2.35938C356.665 2.45833 356.527 2.52604 356.355 2.5625C356.183 2.53125 356.047 2.46615 355.949 2.36719C355.855 2.26823 355.813 2.125 355.824 1.9375ZM360.442 0.820312L358.349 12.8203H357.497L359.583 0.820312H360.442ZM365.584 11.1328L367.374 0.820312H368.241L366.147 12.8203H365.342L365.584 11.1328ZM361.225 8.99219L361.327 8.21875C361.384 7.75 361.48 7.27604 361.616 6.79688C361.756 6.31771 361.952 5.8776 362.202 5.47656C362.457 5.07552 362.777 4.76042 363.163 4.53125C363.548 4.29688 364.019 4.1901 364.577 4.21094C364.999 4.22656 365.353 4.33073 365.639 4.52344C365.931 4.71615 366.16 4.96875 366.327 5.28125C366.499 5.59375 366.618 5.9349 366.686 6.30469C366.759 6.67448 366.785 7.03906 366.764 7.39844L366.374 9.92969C366.301 10.3255 366.181 10.7083 366.014 11.0781C365.853 11.4427 365.642 11.7734 365.381 12.0703C365.121 12.362 364.816 12.5938 364.467 12.7656C364.124 12.9323 363.736 13.0078 363.303 12.9922C362.767 12.9818 362.347 12.8464 362.045 12.5859C361.743 12.3255 361.527 11.9922 361.397 11.5859C361.267 11.1745 361.194 10.7396 361.178 10.2812C361.163 9.82292 361.178 9.39323 361.225 8.99219ZM362.178 8.20312L362.092 9.00781C362.056 9.3099 362.032 9.64062 362.022 10C362.012 10.3594 362.045 10.7005 362.124 11.0234C362.207 11.3464 362.355 11.6146 362.569 11.8281C362.782 12.0365 363.097 12.1458 363.514 12.1562C363.91 12.1719 364.277 12.0885 364.616 11.9062C364.954 11.724 365.243 11.4792 365.483 11.1719C365.722 10.8594 365.892 10.5156 365.991 10.1406L366.467 7.22656C366.472 6.95052 366.439 6.6875 366.366 6.4375C366.298 6.18229 366.189 5.95312 366.038 5.75C365.887 5.54167 365.699 5.3724 365.475 5.24219C365.256 5.11198 365.001 5.04427 364.709 5.03906C364.262 5.01302 363.887 5.09635 363.584 5.28906C363.282 5.47656 363.038 5.72917 362.85 6.04688C362.663 6.35938 362.517 6.70573 362.413 7.08594C362.308 7.46094 362.23 7.83333 362.178 8.20312ZM370.649 5.75781L369.43 12.8203H368.563L370.031 4.36719H370.875L370.649 5.75781ZM373.266 4.30469L373.141 5.16406C373.047 5.14844 372.956 5.13542 372.867 5.125C372.784 5.10938 372.701 5.10156 372.617 5.10156C372.221 5.09115 371.88 5.17448 371.594 5.35156C371.313 5.52865 371.076 5.76302 370.883 6.05469C370.695 6.34115 370.539 6.65625 370.414 7C370.289 7.33854 370.185 7.66667 370.102 7.98438L369.789 8.11719C369.852 7.72135 369.943 7.29427 370.063 6.83594C370.188 6.3776 370.359 5.94531 370.578 5.53906C370.802 5.1276 371.086 4.79688 371.43 4.54688C371.779 4.29167 372.208 4.17448 372.719 4.19531C372.813 4.19531 372.904 4.20573 372.992 4.22656C373.086 4.2474 373.177 4.27344 373.266 4.30469ZM376.049 12.9844C375.507 12.974 375.059 12.8568 374.705 12.6328C374.356 12.4089 374.085 12.1146 373.892 11.75C373.705 11.3802 373.582 10.9714 373.525 10.5234C373.468 10.0703 373.465 9.61458 373.517 9.15625L373.642 8.17188C373.705 7.69271 373.822 7.21615 373.994 6.74219C374.171 6.26302 374.4 5.83073 374.681 5.44531C374.968 5.05469 375.322 4.7474 375.744 4.52344C376.166 4.29427 376.655 4.1901 377.213 4.21094C377.728 4.22656 378.145 4.34635 378.463 4.57031C378.786 4.79427 379.02 5.08594 379.166 5.44531C379.317 5.79948 379.408 6.19531 379.439 6.63281C379.47 7.07031 379.457 7.50521 379.4 7.9375L379.306 8.66406H374.08L374.228 7.85156L378.556 7.84375L378.595 7.625C378.642 7.24479 378.64 6.85677 378.588 6.46094C378.536 6.0651 378.4 5.73177 378.181 5.46094C377.968 5.1901 377.627 5.04167 377.158 5.01562C376.71 5 376.327 5.08333 376.009 5.26562C375.692 5.44792 375.431 5.69531 375.228 6.00781C375.03 6.32031 374.871 6.66927 374.752 7.05469C374.637 7.4349 374.556 7.80729 374.509 8.17188L374.384 9.15625C374.353 9.48958 374.348 9.83333 374.369 10.1875C374.39 10.5365 374.46 10.8594 374.58 11.1562C374.7 11.4479 374.882 11.6849 375.127 11.8672C375.377 12.0495 375.707 12.1484 376.119 12.1641C376.536 12.1745 376.913 12.1016 377.252 11.9453C377.595 11.7839 377.916 11.5599 378.213 11.2734L378.619 11.8594C378.4 12.1198 378.155 12.3333 377.884 12.5C377.614 12.6667 377.322 12.7891 377.009 12.8672C376.702 12.9505 376.382 12.9896 376.049 12.9844ZM382.527 6.17188L381.386 12.8203H380.519L381.988 4.36719H382.808L382.527 6.17188ZM382.019 8.07031L381.714 7.875C381.782 7.46354 381.896 7.04167 382.058 6.60938C382.225 6.17188 382.435 5.77083 382.691 5.40625C382.946 5.03646 383.258 4.74219 383.628 4.52344C383.998 4.29948 384.43 4.19271 384.925 4.20312C385.352 4.21354 385.696 4.3151 385.956 4.50781C386.217 4.70052 386.404 4.95052 386.519 5.25781C386.633 5.5599 386.699 5.89062 386.714 6.25C386.735 6.60938 386.727 6.96354 386.691 7.3125L385.769 12.8203H384.917L385.839 7.29688C385.87 6.96875 385.873 6.63021 385.847 6.28125C385.826 5.93229 385.727 5.63802 385.55 5.39844C385.373 5.15885 385.074 5.03125 384.652 5.01562C384.271 5.01042 383.93 5.10417 383.628 5.29688C383.331 5.48958 383.074 5.74479 382.855 6.0625C382.641 6.375 382.464 6.70833 382.324 7.0625C382.183 7.41667 382.081 7.7526 382.019 8.07031ZM394.077 10.8594L396.858 4.375L397.522 4.36719L396.905 6.125L394.006 12.8203H393.389L394.077 10.8594ZM393.584 4.36719L393.944 10.8672L393.874 12.8203H393.28L392.749 4.36719H393.584ZM398.35 10.8203L400.897 4.36719H401.795L398.319 12.8203H397.686L398.35 10.8203ZM397.6 4.36719L398.147 10.8516L398.178 12.8203H397.6L396.975 6.03906L396.999 4.36719H397.6ZM404.57 4.36719L403.102 12.8203H402.25L403.719 4.36719H404.57ZM404.008 1.9375C404.024 1.74479 404.083 1.59896 404.188 1.5C404.297 1.39583 404.438 1.32292 404.609 1.28125C404.781 1.3125 404.914 1.38021 405.008 1.48438C405.107 1.58333 405.151 1.73177 405.141 1.92969C405.12 2.11719 405.057 2.26042 404.953 2.35938C404.849 2.45833 404.711 2.52604 404.539 2.5625C404.367 2.53125 404.232 2.46615 404.133 2.36719C404.039 2.26823 403.997 2.125 404.008 1.9375ZM409.744 4.36719L409.603 5.14844H406.08L406.22 4.36719H409.744ZM407.853 2.20312H408.72L407.275 10.7734C407.259 10.9453 407.249 11.1354 407.244 11.3438C407.244 11.5469 407.286 11.724 407.369 11.875C407.457 12.026 407.614 12.1042 407.838 12.1094C407.942 12.1146 408.043 12.112 408.142 12.1016C408.246 12.0859 408.351 12.0703 408.455 12.0547L408.408 12.8516C408.272 12.888 408.137 12.9167 408.002 12.9375C407.871 12.9583 407.741 12.9661 407.611 12.9609C407.215 12.9557 406.926 12.8359 406.744 12.6016C406.567 12.362 406.46 12.0729 406.424 11.7344C406.387 11.3906 406.384 11.0625 406.416 10.75L407.853 2.20312ZM413.199 0.820312L411.12 12.8203H410.253L412.339 0.820312H413.199ZM411.753 8.07031L411.449 7.875C411.516 7.46354 411.631 7.04167 411.792 6.60938C411.959 6.17188 412.17 5.77083 412.425 5.40625C412.68 5.03646 412.993 4.74219 413.363 4.52344C413.732 4.29948 414.165 4.19271 414.659 4.20312C415.087 4.21354 415.43 4.3151 415.691 4.50781C415.951 4.70052 416.139 4.95052 416.253 5.25781C416.368 5.5599 416.433 5.89062 416.449 6.25C416.469 6.60938 416.462 6.96354 416.425 7.3125L415.503 12.8203H414.652L415.574 7.29688C415.605 6.96875 415.607 6.63021 415.581 6.28125C415.56 5.93229 415.462 5.63802 415.284 5.39844C415.107 5.15885 414.808 5.03125 414.386 5.01562C414.006 5.01042 413.665 5.10417 413.363 5.29688C413.066 5.48958 412.808 5.74479 412.589 6.0625C412.376 6.375 412.199 6.70833 412.058 7.0625C411.917 7.41667 411.816 7.7526 411.753 8.07031ZM426.749 2.17969L421.741 12.8203H420.78L426.272 1.44531H426.928L426.749 2.17969ZM427.772 12.8203L426.413 2.125L426.491 1.44531H427.092L428.624 12.8203H427.772ZM427.959 8.80469L427.803 9.64062H422.811L422.959 8.80469H427.959ZM434.891 10.8359L436.008 4.36719H436.859L435.391 12.8203H434.57L434.891 10.8359ZM435.32 9.29688L435.711 9.28125C435.638 9.72917 435.531 10.1771 435.391 10.625C435.25 11.0729 435.057 11.4792 434.813 11.8438C434.568 12.2031 434.255 12.4896 433.875 12.7031C433.5 12.9115 433.044 13.0052 432.508 12.9844C432.07 12.9792 431.721 12.8776 431.461 12.6797C431.201 12.4766 431.008 12.2161 430.883 11.8984C430.758 11.5807 430.685 11.237 430.664 10.8672C430.643 10.4922 430.651 10.1302 430.688 9.78125L431.594 4.36719H432.461L431.555 9.80469C431.534 10.0339 431.524 10.2812 431.524 10.5469C431.524 10.8125 431.557 11.0651 431.625 11.3047C431.698 11.5391 431.815 11.7344 431.977 11.8906C432.143 12.0469 432.375 12.1328 432.672 12.1484C433.24 12.1693 433.701 12.0391 434.055 11.7578C434.414 11.4766 434.693 11.1146 434.891 10.6719C435.089 10.2292 435.232 9.77083 435.32 9.29688ZM441.931 4.36719L441.791 5.14844H438.267L438.408 4.36719H441.931ZM440.041 2.20312H440.908L439.463 10.7734C439.447 10.9453 439.437 11.1354 439.431 11.3438C439.431 11.5469 439.473 11.724 439.556 11.875C439.645 12.026 439.801 12.1042 440.025 12.1094C440.129 12.1146 440.231 12.112 440.33 12.1016C440.434 12.0859 440.538 12.0703 440.642 12.0547L440.595 12.8516C440.46 12.888 440.325 12.9167 440.189 12.9375C440.059 12.9583 439.929 12.9661 439.799 12.9609C439.403 12.9557 439.114 12.8359 438.931 12.6016C438.754 12.362 438.647 12.0729 438.611 11.7344C438.575 11.3906 438.572 11.0625 438.603 10.75L440.041 2.20312ZM444.855 4.36719L443.386 12.8203H442.534L444.003 4.36719H444.855ZM444.292 1.9375C444.308 1.74479 444.368 1.59896 444.472 1.5C444.581 1.39583 444.722 1.32292 444.894 1.28125C445.066 1.3125 445.199 1.38021 445.292 1.48438C445.391 1.58333 445.435 1.73177 445.425 1.92969C445.404 2.11719 445.342 2.26042 445.238 2.35938C445.133 2.45833 444.995 2.52604 444.824 2.5625C444.652 2.53125 444.516 2.46615 444.417 2.36719C444.324 2.26823 444.282 2.125 444.292 1.9375ZM450.349 10.6797C450.39 10.3724 450.33 10.112 450.169 9.89844C450.013 9.67969 449.812 9.49219 449.567 9.33594C449.322 9.17969 449.085 9.04167 448.856 8.92188C448.601 8.78125 448.351 8.64062 448.106 8.5C447.867 8.35417 447.651 8.1901 447.458 8.00781C447.27 7.82552 447.119 7.61458 447.005 7.375C446.895 7.13021 446.851 6.84635 446.872 6.52344C446.893 6.16927 446.981 5.84896 447.138 5.5625C447.299 5.27083 447.502 5.02344 447.747 4.82031C447.997 4.61719 448.278 4.46354 448.591 4.35938C448.908 4.25521 449.242 4.20573 449.591 4.21094C450.08 4.22135 450.5 4.33073 450.849 4.53906C451.197 4.7474 451.458 5.03906 451.63 5.41406C451.807 5.78385 451.877 6.20312 451.841 6.67188L450.997 6.67969C451.013 6.36719 450.966 6.08854 450.856 5.84375C450.752 5.59375 450.588 5.39844 450.364 5.25781C450.14 5.11198 449.867 5.03646 449.544 5.03125C449.242 5.02604 448.958 5.08073 448.692 5.19531C448.432 5.30469 448.213 5.47135 448.036 5.69531C447.864 5.91406 447.757 6.17708 447.716 6.48438C447.69 6.70833 447.718 6.90365 447.802 7.07031C447.885 7.23698 448 7.38281 448.145 7.50781C448.291 7.63281 448.453 7.7474 448.63 7.85156C448.812 7.95052 448.987 8.04167 449.153 8.125C449.502 8.3125 449.838 8.51302 450.161 8.72656C450.484 8.9349 450.744 9.1901 450.942 9.49219C451.14 9.78906 451.226 10.1641 451.2 10.6172C451.174 11.0026 451.08 11.3438 450.919 11.6406C450.757 11.9323 450.546 12.1797 450.286 12.3828C450.031 12.5859 449.737 12.737 449.403 12.8359C449.07 12.9349 448.724 12.9818 448.364 12.9766C447.875 12.9661 447.44 12.8594 447.059 12.6562C446.684 12.4479 446.395 12.1641 446.192 11.8047C445.989 11.4401 445.908 11.0052 445.95 10.5L446.809 10.5156C446.799 10.8594 446.851 11.1536 446.966 11.3984C447.085 11.6432 447.268 11.8307 447.513 11.9609C447.757 12.0911 448.054 12.1562 448.403 12.1562C448.71 12.1562 449.005 12.1042 449.286 12C449.572 11.8906 449.812 11.7266 450.005 11.5078C450.197 11.2839 450.312 11.0078 450.349 10.6797ZM454.944 6.14844L453.795 12.8203H452.92L454.389 4.36719H455.225L454.944 6.14844ZM454.444 8.07031L454.124 7.875C454.196 7.45312 454.311 7.02604 454.467 6.59375C454.629 6.15625 454.834 5.75521 455.084 5.39062C455.34 5.02083 455.65 4.72917 456.014 4.51562C456.384 4.29688 456.819 4.19271 457.319 4.20312C457.736 4.21354 458.071 4.3099 458.327 4.49219C458.587 4.66927 458.78 4.90365 458.905 5.19531C459.035 5.48698 459.113 5.80729 459.139 6.15625C459.17 6.50521 459.168 6.85156 459.131 7.19531L458.186 12.8203H457.342L458.264 7.21875C458.301 6.875 458.298 6.53646 458.256 6.20312C458.215 5.86458 458.097 5.58333 457.905 5.35938C457.712 5.13542 457.41 5.02344 456.999 5.02344C456.597 5.00781 456.251 5.09635 455.959 5.28906C455.673 5.48177 455.428 5.73438 455.225 6.04688C455.027 6.35938 454.866 6.69531 454.741 7.05469C454.616 7.40885 454.517 7.7474 454.444 8.07031ZM459.147 7.33594L458.577 7.36719C458.65 6.97656 458.769 6.59115 458.936 6.21094C459.103 5.82552 459.314 5.48177 459.569 5.17969C459.829 4.8724 460.134 4.63021 460.483 4.45312C460.837 4.27604 461.238 4.19271 461.686 4.20312C462.118 4.21354 462.465 4.3125 462.725 4.5C462.991 4.6875 463.189 4.93229 463.319 5.23438C463.449 5.53125 463.527 5.86198 463.553 6.22656C463.579 6.58594 463.574 6.94531 463.538 7.30469L462.616 12.8203H461.741L462.663 7.28906C462.699 6.95052 462.699 6.60938 462.663 6.26562C462.631 5.91667 462.522 5.625 462.334 5.39062C462.152 5.15104 461.85 5.02604 461.428 5.01562C461.111 5.01562 460.821 5.08333 460.561 5.21875C460.306 5.35417 460.082 5.53385 459.889 5.75781C459.702 5.97656 459.545 6.22396 459.42 6.5C459.295 6.77604 459.204 7.05469 459.147 7.33594ZM474.525 9.94531C474.567 9.60677 474.543 9.30729 474.455 9.04688C474.371 8.78125 474.233 8.55469 474.041 8.36719C473.853 8.17448 473.629 8.00781 473.369 7.86719C473.114 7.72656 472.838 7.59896 472.541 7.48438C472.181 7.32812 471.843 7.15885 471.525 6.97656C471.207 6.78906 470.929 6.57031 470.689 6.32031C470.455 6.07031 470.278 5.78125 470.158 5.45312C470.043 5.125 470.007 4.74219 470.049 4.30469C470.08 3.84115 470.197 3.42188 470.4 3.04688C470.603 2.67188 470.866 2.35156 471.189 2.08594C471.512 1.8151 471.874 1.61198 472.275 1.47656C472.681 1.34115 473.111 1.27865 473.564 1.28906C474.2 1.30469 474.728 1.47135 475.15 1.78906C475.577 2.10677 475.884 2.52083 476.072 3.03125C476.259 3.53646 476.325 4.08594 476.267 4.67969L475.392 4.6875C475.434 4.25 475.397 3.83854 475.283 3.45312C475.174 3.06771 474.973 2.7526 474.681 2.50781C474.395 2.26302 474.004 2.13542 473.509 2.125C473.067 2.11458 472.661 2.19792 472.291 2.375C471.921 2.54688 471.614 2.79688 471.369 3.125C471.129 3.44792 470.983 3.83073 470.931 4.27344C470.9 4.60156 470.929 4.88802 471.017 5.13281C471.111 5.3776 471.249 5.59115 471.431 5.77344C471.619 5.95573 471.838 6.11719 472.088 6.25781C472.338 6.39323 472.598 6.51302 472.869 6.61719C473.259 6.76823 473.616 6.94271 473.939 7.14062C474.267 7.33333 474.549 7.5625 474.783 7.82812C475.017 8.08854 475.192 8.39323 475.306 8.74219C475.421 9.08594 475.457 9.48177 475.416 9.92969C475.369 10.4141 475.244 10.8464 475.041 11.2266C474.838 11.6068 474.569 11.9297 474.236 12.1953C473.908 12.4557 473.536 12.6562 473.119 12.7969C472.702 12.9323 472.259 12.9948 471.791 12.9844C471.296 12.9688 470.856 12.875 470.47 12.7031C470.085 12.5312 469.762 12.2891 469.502 11.9766C469.241 11.6641 469.051 11.3047 468.931 10.8984C468.817 10.487 468.783 10.0417 468.83 9.5625H469.713C469.681 9.92708 469.702 10.2656 469.775 10.5781C469.848 10.8854 469.973 11.1562 470.15 11.3906C470.332 11.625 470.564 11.8073 470.845 11.9375C471.132 12.0677 471.465 12.138 471.845 12.1484C472.299 12.1589 472.718 12.0755 473.103 11.8984C473.494 11.7214 473.814 11.4688 474.064 11.1406C474.319 10.8073 474.473 10.4089 474.525 9.94531ZM478.87 6.03906L477.144 16.0703H476.277L478.308 4.36719H479.105L478.87 6.03906ZM483.23 8.20312L483.128 8.99219C483.071 9.44531 482.972 9.91146 482.831 10.3906C482.696 10.8646 482.506 11.2995 482.261 11.6953C482.021 12.0911 481.709 12.4115 481.324 12.6562C480.938 12.8958 480.469 13.0052 479.917 12.9844C479.511 12.974 479.159 12.8828 478.863 12.7109C478.566 12.5339 478.324 12.3047 478.136 12.0234C477.954 11.7422 477.821 11.4271 477.738 11.0781C477.654 10.7292 477.626 10.3698 477.652 10L478.034 7.39062C478.113 7.01042 478.238 6.6276 478.409 6.24219C478.581 5.85156 478.795 5.5026 479.05 5.19531C479.31 4.88281 479.618 4.63802 479.972 4.46094C480.331 4.27865 480.73 4.19271 481.167 4.20312C481.704 4.21354 482.126 4.34635 482.433 4.60156C482.74 4.85677 482.959 5.1875 483.089 5.59375C483.219 5.99479 483.287 6.42448 483.292 6.88281C483.297 7.34115 483.277 7.78125 483.23 8.20312ZM482.284 8.99219L482.386 8.1875C482.417 7.88021 482.435 7.54688 482.441 7.1875C482.451 6.82812 482.415 6.48698 482.331 6.16406C482.248 5.83594 482.094 5.5651 481.87 5.35156C481.652 5.13802 481.334 5.02604 480.917 5.01562C480.6 5.01042 480.305 5.07031 480.034 5.19531C479.764 5.3151 479.521 5.47917 479.308 5.6875C479.094 5.89583 478.912 6.13542 478.761 6.40625C478.615 6.67188 478.503 6.94531 478.425 7.22656L477.949 10.2188C477.943 10.5677 478.019 10.888 478.175 11.1797C478.331 11.4661 478.545 11.7005 478.816 11.8828C479.087 12.0599 479.396 12.1536 479.745 12.1641C480.193 12.1901 480.571 12.1094 480.878 11.9219C481.185 11.7292 481.433 11.474 481.62 11.1562C481.808 10.8385 481.954 10.4922 482.058 10.1172C482.162 9.73698 482.238 9.36198 482.284 8.99219ZM487.333 12.9844C486.791 12.974 486.343 12.8568 485.989 12.6328C485.64 12.4089 485.369 12.1146 485.177 11.75C484.989 11.3802 484.867 10.9714 484.809 10.5234C484.752 10.0703 484.75 9.61458 484.802 9.15625L484.927 8.17188C484.989 7.69271 485.106 7.21615 485.278 6.74219C485.455 6.26302 485.684 5.83073 485.966 5.44531C486.252 5.05469 486.606 4.7474 487.028 4.52344C487.45 4.29427 487.94 4.1901 488.497 4.21094C489.013 4.22656 489.429 4.34635 489.747 4.57031C490.07 4.79427 490.304 5.08594 490.45 5.44531C490.601 5.79948 490.692 6.19531 490.724 6.63281C490.755 7.07031 490.742 7.50521 490.684 7.9375L490.591 8.66406H485.364L485.513 7.85156L489.841 7.84375L489.88 7.625C489.927 7.24479 489.924 6.85677 489.872 6.46094C489.82 6.0651 489.684 5.73177 489.466 5.46094C489.252 5.1901 488.911 5.04167 488.442 5.01562C487.994 5 487.612 5.08333 487.294 5.26562C486.976 5.44792 486.716 5.69531 486.513 6.00781C486.315 6.32031 486.156 6.66927 486.036 7.05469C485.921 7.4349 485.841 7.80729 485.794 8.17188L485.669 9.15625C485.638 9.48958 485.632 9.83333 485.653 10.1875C485.674 10.5365 485.744 10.8594 485.864 11.1562C485.984 11.4479 486.166 11.6849 486.411 11.8672C486.661 12.0495 486.992 12.1484 487.403 12.1641C487.82 12.1745 488.197 12.1016 488.536 11.9453C488.88 11.7839 489.2 11.5599 489.497 11.2734L489.903 11.8594C489.684 12.1198 489.44 12.3333 489.169 12.5C488.898 12.6667 488.606 12.7891 488.294 12.8672C487.987 12.9505 487.666 12.9896 487.333 12.9844ZM494.538 12.1719C494.959 12.1927 495.316 12.1172 495.608 11.9453C495.9 11.7734 496.134 11.5365 496.311 11.2344C496.493 10.9323 496.631 10.5911 496.725 10.2109L497.514 10.2031C497.431 10.724 497.256 11.2005 496.991 11.6328C496.725 12.0599 496.381 12.3984 495.959 12.6484C495.538 12.8932 495.045 13.0078 494.483 12.9922C493.931 12.9766 493.486 12.8542 493.147 12.625C492.808 12.3906 492.553 12.0833 492.381 11.7031C492.215 11.3229 492.113 10.9062 492.077 10.4531C492.04 9.99479 492.048 9.53646 492.1 9.07812L492.233 8.11719C492.301 7.61198 492.415 7.125 492.577 6.65625C492.738 6.18229 492.959 5.75781 493.241 5.38281C493.522 5.00781 493.871 4.71354 494.288 4.5C494.704 4.28646 495.199 4.1901 495.772 4.21094C496.35 4.22656 496.808 4.3776 497.147 4.66406C497.486 4.94531 497.725 5.3151 497.866 5.77344C498.006 6.22656 498.061 6.71094 498.03 7.22656L497.202 7.21875C497.228 6.85938 497.202 6.51562 497.124 6.1875C497.045 5.85938 496.894 5.58854 496.67 5.375C496.452 5.15625 496.134 5.03906 495.717 5.02344C495.269 5.0026 494.889 5.08073 494.577 5.25781C494.264 5.42969 494.006 5.66927 493.803 5.97656C493.605 6.27865 493.449 6.61719 493.334 6.99219C493.22 7.36198 493.139 7.73698 493.092 8.11719L492.967 9.07812C492.926 9.41146 492.905 9.75781 492.905 10.1172C492.91 10.4714 492.959 10.8021 493.053 11.1094C493.147 11.4167 493.311 11.6693 493.545 11.8672C493.785 12.0599 494.116 12.1615 494.538 12.1719ZM503.156 4.36719L503.016 5.14844H499.492L499.633 4.36719H503.156ZM501.266 2.20312H502.133L500.688 10.7734C500.672 10.9453 500.662 11.1354 500.656 11.3438C500.656 11.5469 500.698 11.724 500.781 11.875C500.87 12.026 501.026 12.1042 501.25 12.1094C501.354 12.1146 501.456 12.112 501.555 12.1016C501.659 12.0859 501.763 12.0703 501.867 12.0547L501.82 12.8516C501.685 12.888 501.55 12.9167 501.414 12.9375C501.284 12.9583 501.154 12.9661 501.024 12.9609C500.628 12.9557 500.339 12.8359 500.156 12.6016C499.979 12.362 499.873 12.0729 499.836 11.7344C499.8 11.3906 499.797 11.0625 499.828 10.75L501.266 2.20312ZM505.752 5.75781L504.533 12.8203H503.666L505.134 4.36719H505.978L505.752 5.75781ZM508.369 4.30469L508.244 5.16406C508.15 5.14844 508.059 5.13542 507.97 5.125C507.887 5.10938 507.804 5.10156 507.72 5.10156C507.325 5.09115 506.983 5.17448 506.697 5.35156C506.416 5.52865 506.179 5.76302 505.986 6.05469C505.799 6.34115 505.642 6.65625 505.517 7C505.392 7.33854 505.288 7.66667 505.205 7.98438L504.892 8.11719C504.955 7.72135 505.046 7.29427 505.166 6.83594C505.291 6.3776 505.463 5.94531 505.681 5.53906C505.905 5.1276 506.189 4.79688 506.533 4.54688C506.882 4.29167 507.312 4.17448 507.822 4.19531C507.916 4.19531 508.007 4.20573 508.095 4.22656C508.189 4.2474 508.28 4.27344 508.369 4.30469ZM513.253 10.8359L514.37 4.36719H515.222L513.753 12.8203H512.933L513.253 10.8359ZM513.683 9.29688L514.073 9.28125C514.001 9.72917 513.894 10.1771 513.753 10.625C513.613 11.0729 513.42 11.4792 513.175 11.8438C512.93 12.2031 512.618 12.4896 512.238 12.7031C511.863 12.9115 511.407 13.0052 510.87 12.9844C510.433 12.9792 510.084 12.8776 509.823 12.6797C509.563 12.4766 509.37 12.2161 509.245 11.8984C509.12 11.5807 509.047 11.237 509.027 10.8672C509.006 10.4922 509.014 10.1302 509.05 9.78125L509.956 4.36719H510.823L509.917 9.80469C509.896 10.0339 509.886 10.2812 509.886 10.5469C509.886 10.8125 509.92 11.0651 509.988 11.3047C510.06 11.5391 510.178 11.7344 510.339 11.8906C510.506 12.0469 510.738 12.1328 511.034 12.1484C511.602 12.1693 512.063 12.0391 512.417 11.7578C512.777 11.4766 513.055 11.1146 513.253 10.6719C513.451 10.2292 513.594 9.77083 513.683 9.29688ZM518.122 6.14844L516.974 12.8203H516.099L517.567 4.36719H518.403L518.122 6.14844ZM517.622 8.07031L517.302 7.875C517.375 7.45312 517.489 7.02604 517.645 6.59375C517.807 6.15625 518.013 5.75521 518.263 5.39062C518.518 5.02083 518.828 4.72917 519.192 4.51562C519.562 4.29688 519.997 4.19271 520.497 4.20312C520.914 4.21354 521.25 4.3099 521.505 4.49219C521.765 4.66927 521.958 4.90365 522.083 5.19531C522.213 5.48698 522.291 5.80729 522.317 6.15625C522.349 6.50521 522.346 6.85156 522.309 7.19531L521.364 12.8203H520.52L521.442 7.21875C521.479 6.875 521.476 6.53646 521.434 6.20312C521.393 5.86458 521.276 5.58333 521.083 5.35938C520.89 5.13542 520.588 5.02344 520.177 5.02344C519.776 5.00781 519.429 5.09635 519.138 5.28906C518.851 5.48177 518.606 5.73438 518.403 6.04688C518.205 6.35938 518.044 6.69531 517.919 7.05469C517.794 7.40885 517.695 7.7474 517.622 8.07031ZM522.325 7.33594L521.755 7.36719C521.828 6.97656 521.947 6.59115 522.114 6.21094C522.281 5.82552 522.492 5.48177 522.747 5.17969C523.007 4.8724 523.312 4.63021 523.661 4.45312C524.015 4.27604 524.416 4.19271 524.864 4.20312C525.296 4.21354 525.643 4.3125 525.903 4.5C526.169 4.6875 526.367 4.93229 526.497 5.23438C526.627 5.53125 526.705 5.86198 526.731 6.22656C526.757 6.58594 526.752 6.94531 526.716 7.30469L525.794 12.8203H524.919L525.841 7.28906C525.877 6.95052 525.877 6.60938 525.841 6.26562C525.809 5.91667 525.7 5.625 525.513 5.39062C525.33 5.15104 525.028 5.02604 524.606 5.01562C524.289 5.01562 524 5.08333 523.739 5.21875C523.484 5.35417 523.26 5.53385 523.067 5.75781C522.88 5.97656 522.724 6.22396 522.599 6.5C522.474 6.77604 522.382 7.05469 522.325 7.33594ZM534.633 12.8203H532.484L532.648 11.9844L534.672 11.9922C535.422 12.0026 536.06 11.8438 536.586 11.5156C537.112 11.1823 537.534 10.7344 537.852 10.1719C538.169 9.60417 538.383 8.97396 538.492 8.28125L538.844 5.96094C538.906 5.51823 538.914 5.08333 538.867 4.65625C538.826 4.22396 538.719 3.83333 538.547 3.48438C538.375 3.13021 538.122 2.84635 537.789 2.63281C537.461 2.41927 537.034 2.30208 536.508 2.28125H534.266L534.422 1.44531L536.531 1.45312C537.182 1.46875 537.727 1.60417 538.164 1.85938C538.602 2.11458 538.948 2.45573 539.203 2.88281C539.458 3.3099 539.628 3.78906 539.711 4.32031C539.794 4.85156 539.797 5.40625 539.719 5.98438L539.359 8.28125C539.26 8.92188 539.089 9.52083 538.844 10.0781C538.599 10.6302 538.279 11.112 537.883 11.5234C537.487 11.9349 537.018 12.2552 536.477 12.4844C535.94 12.7135 535.326 12.8255 534.633 12.8203ZM534.891 1.44531L532.914 12.8203H532.023L534 1.44531H534.891ZM543.252 4.36719L541.783 12.8203H540.931L542.4 4.36719H543.252ZM542.689 1.9375C542.705 1.74479 542.765 1.59896 542.869 1.5C542.978 1.39583 543.119 1.32292 543.291 1.28125C543.463 1.3125 543.595 1.38021 543.689 1.48438C543.788 1.58333 543.832 1.73177 543.822 1.92969C543.801 2.11719 543.739 2.26042 543.634 2.35938C543.53 2.45833 543.392 2.52604 543.22 2.5625C543.049 2.53125 542.913 2.46615 542.814 2.36719C542.72 2.26823 542.679 2.125 542.689 1.9375ZM548.745 10.6797C548.787 10.3724 548.727 10.112 548.566 9.89844C548.409 9.67969 548.209 9.49219 547.964 9.33594C547.719 9.17969 547.482 9.04167 547.253 8.92188C546.998 8.78125 546.748 8.64062 546.503 8.5C546.264 8.35417 546.048 8.1901 545.855 8.00781C545.667 7.82552 545.516 7.61458 545.402 7.375C545.292 7.13021 545.248 6.84635 545.269 6.52344C545.29 6.16927 545.378 5.84896 545.534 5.5625C545.696 5.27083 545.899 5.02344 546.144 4.82031C546.394 4.61719 546.675 4.46354 546.988 4.35938C547.305 4.25521 547.639 4.20573 547.988 4.21094C548.477 4.22135 548.896 4.33073 549.245 4.53906C549.594 4.7474 549.855 5.03906 550.027 5.41406C550.204 5.78385 550.274 6.20312 550.238 6.67188L549.394 6.67969C549.409 6.36719 549.363 6.08854 549.253 5.84375C549.149 5.59375 548.985 5.39844 548.761 5.25781C548.537 5.11198 548.264 5.03646 547.941 5.03125C547.639 5.02604 547.355 5.08073 547.089 5.19531C546.829 5.30469 546.61 5.47135 546.433 5.69531C546.261 5.91406 546.154 6.17708 546.113 6.48438C546.087 6.70833 546.115 6.90365 546.199 7.07031C546.282 7.23698 546.396 7.38281 546.542 7.50781C546.688 7.63281 546.85 7.7474 547.027 7.85156C547.209 7.95052 547.383 8.04167 547.55 8.125C547.899 8.3125 548.235 8.51302 548.558 8.72656C548.881 8.9349 549.141 9.1901 549.339 9.49219C549.537 9.78906 549.623 10.1641 549.597 10.6172C549.571 11.0026 549.477 11.3438 549.316 11.6406C549.154 11.9323 548.943 12.1797 548.683 12.3828C548.428 12.5859 548.133 12.737 547.8 12.8359C547.467 12.9349 547.12 12.9818 546.761 12.9766C546.271 12.9661 545.837 12.8594 545.456 12.6562C545.081 12.4479 544.792 12.1641 544.589 11.8047C544.386 11.4401 544.305 11.0052 544.347 10.5L545.206 10.5156C545.196 10.8594 545.248 11.1536 545.363 11.3984C545.482 11.6432 545.665 11.8307 545.909 11.9609C546.154 12.0911 546.451 12.1562 546.8 12.1562C547.107 12.1562 547.402 12.1042 547.683 12C547.969 11.8906 548.209 11.7266 548.402 11.5078C548.594 11.2839 548.709 11.0078 548.745 10.6797ZM551.731 9.03125L551.833 8.16406C551.901 7.67448 552.02 7.19531 552.192 6.72656C552.364 6.2526 552.596 5.82031 552.888 5.42969C553.179 5.03906 553.533 4.73438 553.95 4.51562C554.372 4.29167 554.862 4.1875 555.419 4.20312C555.96 4.21875 556.401 4.34896 556.739 4.59375C557.078 4.83333 557.333 5.14844 557.505 5.53906C557.682 5.92969 557.794 6.35156 557.841 6.80469C557.893 7.25781 557.893 7.70833 557.841 8.15625L557.731 9.03906C557.664 9.51823 557.544 9.9974 557.372 10.4766C557.2 10.9505 556.968 11.3802 556.677 11.7656C556.385 12.151 556.028 12.4557 555.606 12.6797C555.19 12.9036 554.697 13.0078 554.13 12.9922C553.599 12.9766 553.164 12.8464 552.825 12.6016C552.487 12.3516 552.229 12.0339 552.052 11.6484C551.875 11.2578 551.763 10.8359 551.716 10.3828C551.669 9.92969 551.674 9.47917 551.731 9.03125ZM552.7 8.15625L552.591 9.05469C552.559 9.36198 552.549 9.69531 552.559 10.0547C552.575 10.4089 552.635 10.7448 552.739 11.0625C552.843 11.3802 553.01 11.6406 553.239 11.8438C553.474 12.0469 553.791 12.1562 554.192 12.1719C554.635 12.1927 555.015 12.112 555.333 11.9297C555.651 11.7422 555.914 11.4922 556.122 11.1797C556.33 10.8672 556.494 10.5234 556.614 10.1484C556.739 9.77344 556.825 9.40365 556.872 9.03906L556.989 8.14844C557.026 7.83594 557.033 7.50521 557.013 7.15625C556.997 6.80208 556.937 6.46615 556.833 6.14844C556.729 5.82552 556.557 5.5599 556.317 5.35156C556.083 5.14323 555.765 5.03125 555.364 5.01562C554.937 5 554.567 5.08594 554.255 5.27344C553.942 5.46094 553.679 5.71354 553.466 6.03125C553.252 6.34896 553.083 6.69271 552.958 7.0625C552.833 7.42708 552.747 7.79167 552.7 8.15625ZM561.202 5.75781L559.983 12.8203H559.116L560.584 4.36719H561.428L561.202 5.75781ZM563.819 4.30469L563.694 5.16406C563.6 5.14844 563.509 5.13542 563.42 5.125C563.337 5.10938 563.254 5.10156 563.17 5.10156C562.775 5.09115 562.433 5.17448 562.147 5.35156C561.866 5.52865 561.629 5.76302 561.436 6.05469C561.249 6.34115 561.092 6.65625 560.967 7C560.842 7.33854 560.738 7.66667 560.655 7.98438L560.342 8.11719C560.405 7.72135 560.496 7.29427 560.616 6.83594C560.741 6.3776 560.913 5.94531 561.131 5.53906C561.355 5.1276 561.639 4.79688 561.983 4.54688C562.332 4.29167 562.762 4.17448 563.272 4.19531C563.366 4.19531 563.457 4.20573 563.545 4.22656C563.639 4.2474 563.73 4.27344 563.819 4.30469ZM568.563 11.1328L570.352 0.820312H571.219L569.125 12.8203H568.32L568.563 11.1328ZM564.203 8.99219L564.305 8.21875C564.362 7.75 564.458 7.27604 564.594 6.79688C564.734 6.31771 564.93 5.8776 565.18 5.47656C565.435 5.07552 565.755 4.76042 566.141 4.53125C566.526 4.29688 566.997 4.1901 567.555 4.21094C567.977 4.22656 568.331 4.33073 568.617 4.52344C568.909 4.71615 569.138 4.96875 569.305 5.28125C569.477 5.59375 569.596 5.9349 569.664 6.30469C569.737 6.67448 569.763 7.03906 569.742 7.39844L569.352 9.92969C569.279 10.3255 569.159 10.7083 568.992 11.0781C568.831 11.4427 568.62 11.7734 568.359 12.0703C568.099 12.362 567.794 12.5938 567.445 12.7656C567.102 12.9323 566.714 13.0078 566.281 12.9922C565.745 12.9818 565.326 12.8464 565.023 12.5859C564.721 12.3255 564.505 11.9922 564.375 11.5859C564.245 11.1745 564.172 10.7396 564.156 10.2812C564.141 9.82292 564.156 9.39323 564.203 8.99219ZM565.156 8.20312L565.07 9.00781C565.034 9.3099 565.01 9.64062 565 10C564.99 10.3594 565.023 10.7005 565.102 11.0234C565.185 11.3464 565.333 11.6146 565.547 11.8281C565.76 12.0365 566.076 12.1458 566.492 12.1562C566.888 12.1719 567.255 12.0885 567.594 11.9062C567.932 11.724 568.221 11.4792 568.461 11.1719C568.701 10.8594 568.87 10.5156 568.969 10.1406L569.445 7.22656C569.451 6.95052 569.417 6.6875 569.344 6.4375C569.276 6.18229 569.167 5.95312 569.016 5.75C568.865 5.54167 568.677 5.3724 568.453 5.24219C568.234 5.11198 567.979 5.04427 567.688 5.03906C567.24 5.01302 566.865 5.09635 566.563 5.28906C566.26 5.47656 566.016 5.72917 565.828 6.04688C565.641 6.35938 565.495 6.70573 565.391 7.08594C565.287 7.46094 565.208 7.83333 565.156 8.20312ZM574.33 12.9844C573.788 12.974 573.34 12.8568 572.986 12.6328C572.637 12.4089 572.366 12.1146 572.174 11.75C571.986 11.3802 571.864 10.9714 571.806 10.5234C571.749 10.0703 571.746 9.61458 571.799 9.15625L571.924 8.17188C571.986 7.69271 572.103 7.21615 572.275 6.74219C572.452 6.26302 572.681 5.83073 572.963 5.44531C573.249 5.05469 573.603 4.7474 574.025 4.52344C574.447 4.29427 574.937 4.1901 575.494 4.21094C576.009 4.22656 576.426 4.34635 576.744 4.57031C577.067 4.79427 577.301 5.08594 577.447 5.44531C577.598 5.79948 577.689 6.19531 577.72 6.63281C577.752 7.07031 577.739 7.50521 577.681 7.9375L577.588 8.66406H572.361L572.509 7.85156L576.838 7.84375L576.877 7.625C576.924 7.24479 576.921 6.85677 576.869 6.46094C576.817 6.0651 576.681 5.73177 576.463 5.46094C576.249 5.1901 575.908 5.04167 575.439 5.01562C574.991 5 574.608 5.08333 574.291 5.26562C573.973 5.44792 573.713 5.69531 573.509 6.00781C573.312 6.32031 573.153 6.66927 573.033 7.05469C572.918 7.4349 572.838 7.80729 572.791 8.17188L572.666 9.15625C572.634 9.48958 572.629 9.83333 572.65 10.1875C572.671 10.5365 572.741 10.8594 572.861 11.1562C572.981 11.4479 573.163 11.6849 573.408 11.8672C573.658 12.0495 573.989 12.1484 574.4 12.1641C574.817 12.1745 575.194 12.1016 575.533 11.9453C575.877 11.7839 576.197 11.5599 576.494 11.2734L576.9 11.8594C576.681 12.1198 576.437 12.3333 576.166 12.5C575.895 12.6667 575.603 12.7891 575.291 12.8672C574.983 12.9505 574.663 12.9896 574.33 12.9844ZM580.886 5.75781L579.667 12.8203H578.8L580.269 4.36719H581.113L580.886 5.75781ZM583.503 4.30469L583.378 5.16406C583.284 5.14844 583.193 5.13542 583.105 5.125C583.021 5.10938 582.938 5.10156 582.855 5.10156C582.459 5.09115 582.118 5.17448 581.831 5.35156C581.55 5.52865 581.313 5.76302 581.12 6.05469C580.933 6.34115 580.777 6.65625 580.652 7C580.527 7.33854 580.423 7.66667 580.339 7.98438L580.027 8.11719C580.089 7.72135 580.18 7.29427 580.3 6.83594C580.425 6.3776 580.597 5.94531 580.816 5.53906C581.04 5.1276 581.324 4.79688 581.667 4.54688C582.016 4.29167 582.446 4.17448 582.956 4.19531C583.05 4.19531 583.141 4.20573 583.23 4.22656C583.324 4.2474 583.415 4.27344 583.503 4.30469Z" fill="black"/>
</svg>
